<?xml version="1.0" encoding="UTF-8" standalone="no"?>
<svg
   width="55"
   height="55"
   viewBox="0 0 55 55"
   version="1.1"
   id="svg85"
   xmlns="http://www.w3.org/2000/svg"
   xmlns:svg="http://www.w3.org/2000/svg">
  <defs
     id="defs85" />
  <g
     id="surface1">
    <path
       style="fill:#0c0c0c;fill-opacity:1;fill-rule:nonzero;stroke:none"
       d="m 16.574219,1.570312 c 0.08984,0.058594 0.179687,0.113282 0.273437,0.171876 1.4375,0.945312 2.707032,2.421874 3.707032,4.152343 0.05469,0.085938 0.105468,0.171875 0.160156,0.261719 1.5625,2.695312 2.175781,5.859375 2.167968,9.296875 0,0.144531 0,0.285156 0,0.433594 -0.0039,3.976562 -1.105468,7.457031 -3.066406,10.304687 -0.867187,1.175782 -0.867187,1.175782 -1.113281,1.175782 -0.03125,0.132812 -0.05859,0.261718 -0.09375,0.394531 -0.08984,0 -0.179687,0 -0.277344,0 0,0.08594 0,0.171875 0,0.261719 -0.335937,0.265624 -0.675781,0.527343 -1.015625,0.785156 -0.08594,0.06641 -0.171875,0.136718 -0.261718,0.203125 -0.777344,0.589843 -1.574219,0.933593 -2.425782,1.238281 -0.08984,0.03125 -0.175781,0.06641 -0.269531,0.09766 -1.46875,0.4375 -3.097656,0.285156 -4.542969,-0.230468 C 9.707031,30.085938 9.601562,30.050781 9.492188,30.011719 7.210938,29.191406 5.308594,27.25 3.890625,24.617188 3.832031,24.515625 3.777344,24.414062 3.71875,24.308594 2.917969,22.785156 2.414062,21.089844 2.085938,19.261719 2.039062,19.003906 1.992188,18.753906 1.941406,18.5 1.84375,17.949219 1.820312,17.421875 1.820312,16.855469 c 0,-0.148438 0,-0.148438 0,-0.304688 -0.00391,-0.210937 -0.00391,-0.425781 -0.00391,-0.636719 0,-0.316406 -0.00391,-0.632812 -0.00781,-0.953124 -0.011719,-2.667969 0.5,-5.109376 1.523437,-7.367188 C 3.398438,7.433594 3.460938,7.273438 3.523438,7.113281 3.722656,6.636719 3.925781,6.199219 4.167969,5.761719 c 0.058593,0 0.121093,0 0.183593,0 C 4.375,5.683594 4.402344,5.605469 4.425781,5.527344 4.605469,5.058594 4.871094,4.726562 5.132812,4.355469 5.1875,4.273438 5.242188,4.195312 5.296875,4.117188 5.351562,4.039062 5.402344,3.964844 5.457031,3.890625 5.503906,3.820312 5.550781,3.753906 5.601562,3.683594 5.742188,3.535156 5.742188,3.535156 6.019531,3.535156 c 0,-0.085937 0,-0.171875 0,-0.261718 2.890625,-3.26953175 7.222657,-3.839844 10.554688,-1.703126 z M 6.296875,6.808594 c 0,0.085937 0,0.171875 0,0.261718 C 6.203125,7.113281 6.113281,7.15625 6.019531,7.203125 4.5,9.757812 3.609375,12.96875 3.773438,16.328125 c 0.195312,2.71875 1.003906,5.933594 2.535156,7.734375 0.132812,0.144531 0.132812,0.144531 0.265625,0.292969 0.070312,0.105469 0.136719,0.207031 0.207031,0.3125 0.75,1.011719 1.632812,1.601562 2.570312,2.175781 0.070313,0.04687 0.140626,0.08984 0.214844,0.136719 1.820313,1.070312 4.261719,0.722656 6.054688,-0.273438 1.28125,-0.757812 2.519531,-1.953125 3.328125,-3.5625 0.125,-0.226562 0.125,-0.226562 0.308593,-0.359375 0.179688,-0.371094 0.316407,-0.78125 0.464844,-1.179687 0.02734,-0.07422 0.05859,-0.148438 0.08594,-0.226563 1.078125,-2.789062 1.460937,-6.0625 0.839844,-9.183594 -0.08203,-0.363281 -0.175782,-0.714843 -0.277344,-1.0625 -0.02734,-0.09375 -0.05469,-0.183593 -0.08203,-0.273437 C 19.460938,8.121094 18.03125,6.035156 16.203125,4.582031 16.144531,4.535156 16.089844,4.488281 16.03125,4.4375 c -3,-2.359375 -7.441406,-1.167969 -9.734375,2.371094 z m 0,0"
       id="path1" />
    <path
       style="fill:#0a0a0c;fill-opacity:1;fill-rule:nonzero;stroke:none"
       d="m 45.703125,3.511719 c 0.04297,0.050781 0.08594,0.101562 0.128906,0.15625 0,0.085937 0,0.171875 0,0.261719 0.05469,0.03125 0.109375,0.066406 0.164063,0.101562 0.222656,0.171875 0.375,0.363281 0.554687,0.617188 0.05859,0.078124 0.113281,0.160156 0.171875,0.242187 0.128906,0.214844 0.128906,0.214844 0.128906,0.476563 0.09375,0.046874 0.183594,0.089843 0.277344,0.132812 0.15625,0.269531 0.300782,0.539062 0.441406,0.828125 0.0625,0.125 0.0625,0.125 0.125,0.25 1.691407,3.472656 2.339844,7.605469 1.828126,11.792969 -0.242188,1.691406 -0.632813,3.339844 -1.28125,4.808594 -0.05078,0.113281 -0.09766,0.226562 -0.144532,0.34375 -0.496094,1.15625 -1.117187,2.121093 -1.800781,3.058593 -0.05078,0.07813 -0.105469,0.15625 -0.15625,0.238281 -0.121094,0.15625 -0.121094,0.15625 -0.308594,0.15625 0,0.08594 0,0.171876 0,0.261719 -0.195312,0.214844 -0.390625,0.414063 -0.601562,0.605469 -0.0625,0.05859 -0.125,0.117188 -0.1875,0.175781 -1.152344,1.046875 -2.320313,1.78125 -3.652344,2.230469 -0.144531,0.04687 -0.144531,0.04687 -0.289063,0.09766 -1.648437,0.449219 -3.378906,0.246094 -4.992187,-0.359375 C 36,29.945312 36,29.945312 35.882812,29.902344 35.324219,29.683594 34.828125,29.378906 34.316406,28.988281 34.242188,28.933594 34.164062,28.875 34.085938,28.816406 33.449219,28.324219 32.878906,27.757812 32.316406,27.105469 32.207031,27 32.207031,27 32.101562,26.894531 c -0.07812,-0.08984 -0.07812,-0.08984 -0.15625,-0.179687 0,-0.08594 0,-0.171875 0,-0.261719 -0.125,-0.08594 -0.246093,-0.171875 -0.371093,-0.261719 0,-0.08594 0,-0.171875 0,-0.261718 -0.09375,-0.04297 -0.183594,-0.08594 -0.277344,-0.132813 -0.136719,-0.207031 -0.136719,-0.207031 -0.28125,-0.472656 C 30.9375,25.179688 30.9375,25.179688 30.859375,25.03125 30.804688,24.929688 30.75,24.828125 30.695312,24.726562 30.640625,24.625 30.585938,24.527344 30.53125,24.425781 30.25,23.898438 30.011719,23.390625 29.816406,22.785156 c -0.07422,-0.171875 -0.148437,-0.34375 -0.222656,-0.515625 -0.328125,-0.824219 -0.511719,-1.726562 -0.703125,-2.625 -0.02344,-0.09766 -0.04297,-0.191406 -0.06641,-0.289062 -0.589844,-2.929688 -0.398438,-6.304688 0.34375,-9.140625 0.03125,-0.128906 0.0625,-0.253906 0.09766,-0.382813 0.523437,-1.921875 1.332031,-3.484375 2.308594,-4.988281 0.05469,-0.089844 0.113281,-0.179688 0.167969,-0.269531 0.511718,-0.78125 1.15625,-1.363281 1.777343,-1.957031 0.08594,-0.082032 0.175781,-0.167969 0.265625,-0.253907 C 37.621094,-1.058594 42.125,0.195312 45.703125,3.511719 Z M 32.722656,7.3125 c -0.355468,0.539062 -0.355468,0.539062 -0.5,1.199219 -0.0625,0 -0.121094,0 -0.1875,0 -0.117187,0.285156 -0.234375,0.574219 -0.351562,0.859375 -0.03125,0.078125 -0.06641,0.160156 -0.09766,0.242187 -1.160157,2.839844 -1.203126,6.121094 -0.742188,9.261719 0.308594,1.578125 0.929688,3.042969 1.65625,4.304688 0.09375,0.164062 0.09375,0.164062 0.191406,0.332031 0.664063,1.105469 1.46875,2.0625 2.402344,2.679687 0.08203,0.05469 0.164062,0.109375 0.25,0.167969 0.253906,0.164063 0.511719,0.324219 0.765625,0.484375 0.06641,0.04297 0.128906,0.08203 0.191406,0.121094 1.855469,1.078125 4.261719,0.746094 6.082031,-0.285156 0.636719,-0.375 1.222657,-0.835938 1.785157,-1.40625 0.07031,-0.06641 0.140625,-0.136719 0.210937,-0.207032 0.05078,-0.0625 0.105469,-0.121094 0.15625,-0.183594 0,-0.08984 0,-0.175781 0,-0.265624 0.05078,-0.02734 0.101563,-0.05859 0.152344,-0.08984 0.691406,-0.539063 1.082031,-1.355469 1.515625,-2.265625 0.05078,-0.09766 0.09766,-0.199219 0.148437,-0.300781 1.3125,-2.859376 1.550782,-6.207032 1.058594,-9.488282 -0.07031,-0.425781 -0.15625,-0.824218 -0.273437,-1.226562 -0.03125,-0.101563 -0.05859,-0.199219 -0.08984,-0.304688 -0.03516,-0.109375 -0.06641,-0.21875 -0.101563,-0.335937 -0.04297,-0.140625 -0.08203,-0.285157 -0.125,-0.433594 C 46.660156,9.644531 46.449219,9.179688 46.222656,8.707031 46.179688,8.621094 46.136719,8.535156 46.09375,8.445312 44.964844,6.113281 43.144531,4.191406 41.160156,3.597656 40.929688,3.542969 40.695312,3.492188 40.464844,3.445312 40.347656,3.421875 40.347656,3.421875 40.226562,3.394531 37.414062,2.8125 34.625,4.351562 32.722656,7.3125 Z m 0,0"
       id="path2" />
    <path
       style="fill:#070707;fill-opacity:1;fill-rule:nonzero;stroke:none"
       d="m 10.003906,41.230469 c 0.507813,0.378906 0.960938,0.863281 1.421875,1.347656 0.285157,0.289063 0.578125,0.53125 0.890625,0.765625 0,0.08984 0,0.175781 0,0.261719 0.08203,0.03516 0.164063,0.07031 0.246094,0.109375 0.289062,0.144531 0.511719,0.320312 0.769531,0.546875 1.203125,0.9375 2.417969,1.820312 3.703125,2.488281 0.07422,0.03906 0.144532,0.07422 0.21875,0.113281 1.898438,0.992188 3.875,1.617188 5.894532,1.851563 0.06641,0.01172 0.132812,0.01953 0.203124,0.03125 3.332032,0.539062 6.941407,-0.0625 10.074219,-1.734375 0.05859,-0.03125 0.117188,-0.05859 0.175781,-0.08984 1.289063,-0.679687 2.511719,-1.453125 3.714844,-2.398437 0.101563,-0.07813 0.203125,-0.160157 0.308594,-0.242188 0.710938,-0.570312 1.363281,-1.234375 2.015625,-1.933594 0.421875,-0.441406 0.421875,-0.441406 0.730469,-0.441406 0.01953,0.65625 0.03125,1.3125 0.03906,1.96875 0.0039,0.222656 0.0078,0.449219 0.01563,0.671875 0.05078,1.847656 0.05078,1.847656 -0.203125,2.378906 -0.191406,0.207031 -0.371094,0.34375 -0.59375,0.480469 -0.101562,0.08984 -0.199218,0.179688 -0.304687,0.277344 -0.09375,0.07422 -0.183594,0.148437 -0.277344,0.230468 -0.09375,0.07422 -0.1875,0.152344 -0.285156,0.234376 -0.242188,0.171874 -0.242188,0.171874 -0.519531,0.171874 0,0.08594 0,0.175782 0,0.261719 C 38,48.746094 37.757812,48.90625 37.515625,49.066406 c -0.06641,0.04297 -0.132813,0.08984 -0.199219,0.132813 -0.214844,0.144531 -0.433594,0.289062 -0.648437,0.433593 -0.08203,0.05078 -0.160157,0.105469 -0.242188,0.15625 -0.636719,0.421876 -1.285156,0.777344 -1.945312,1.109376 -0.101563,0.05078 -0.199219,0.101562 -0.300781,0.15625 -0.496094,0.25 -0.980469,0.46875 -1.496094,0.617187 -0.269532,0.07813 -0.527344,0.191406 -0.792969,0.300781 -0.628906,0.246094 -1.265625,0.410156 -1.90625,0.5625 -0.09375,0.02344 -0.183594,0.04687 -0.277344,0.06641 -1.261719,0.289063 -2.507812,0.328126 -3.78125,0.328126 -0.285156,0 -0.574219,0.0039 -0.859375,0.0039 -1.117187,0.0039 -2.203125,-0.07031 -3.308594,-0.289063 -0.128906,-0.02734 -0.128906,-0.02734 -0.261718,-0.05078 -0.191406,-0.03906 -0.386719,-0.08203 -0.582032,-0.132812 -0.06641,-0.01563 -0.136718,-0.03125 -0.203124,-0.04688 -0.597657,-0.148437 -1.179688,-0.34375 -1.761719,-0.5625 -0.203125,-0.07422 -0.40625,-0.148437 -0.613281,-0.214843 -1.933594,-0.625 -3.804688,-1.761719 -5.558594,-3.054688 -0.105469,-0.07422 -0.210938,-0.152343 -0.316406,-0.234375 -3.011719,-2.25 -3.011719,-2.25 -4.035157,-3.824218 0,-0.08594 0,-0.171876 0,-0.261719 -0.0625,0 -0.121093,0 -0.183593,0 -0.195313,-0.550781 -0.140626,-1.234375 -0.09375,-1.832031 0.15625,-0.550782 0.386718,-0.84375 0.730468,-1.171876 0.40625,-0.195312 0.71875,-0.265624 1.125,-0.02734 z m 0,0"
       id="path3" />
    <path
       style="fill:#050505;fill-opacity:1;fill-rule:nonzero;stroke:none"
       d="m 43.085938,39.757812 c 0.109374,-0.0039 0.109374,-0.0039 0.21875,-0.0039 0.238281,-0.0039 0.476562,0 0.71875,0 0.164062,0 0.332031,-0.0039 0.5,-0.0039 0.351562,0 0.699218,0 1.050781,0 0.445312,0.0039 0.894531,0 1.339843,-0.0039 0.347657,-0.0039 0.691407,-0.0039 1.039063,0 0.164063,0 0.328125,-0.0039 0.492187,-0.0039 0.230469,-0.0039 0.460938,0 0.691407,0 0.101562,0 0.101562,0 0.203125,-0.0039 0.519531,0.01172 0.859375,0.234375 1.308594,0.59375 0,0.08594 0,0.175781 0,0.261719 0.08984,0.04297 0.183593,0.08594 0.277343,0.132812 0.378907,0.984376 0.320313,2.058594 0.316407,3.144532 0.0039,0.207031 0.0039,0.410156 0.0039,0.617187 0,0.425781 0,0.851563 0,1.277344 -0.0039,0.546875 0,1.09375 0.0039,1.636719 0,0.421875 0,0.84375 0,1.265625 0,0.199219 0,0.402343 0,0.601562 0.01172,2.203125 0.01172,2.203125 -0.550781,3.050781 -0.480469,0.613282 -0.902344,0.605469 -1.523438,0.601563 -0.07031,0.0039 -0.144531,0.0039 -0.21875,0.0039 -0.242187,0 -0.484375,0 -0.726562,0 -0.167969,0 -0.335938,0 -0.503907,0.0039 -0.355468,0 -0.707031,0 -1.058593,0 -0.453125,0 -0.90625,0 -1.355469,0.0039 -0.347656,0 -0.695312,0 -1.042969,0 -0.167969,0 -0.335937,0 -0.5,0.0039 -0.234375,0 -0.46875,0 -0.699219,0 -0.105468,0 -0.105468,0 -0.207031,0 -0.542969,-0.0039 -0.941406,-0.09375 -1.351562,-0.605469 -0.457031,-0.734375 -0.597657,-1.164062 -0.601563,-2.152343 0,-0.09375 0,-0.183594 -0.0039,-0.277344 0,-0.296875 0,-0.597656 -0.0039,-0.894532 0,-0.101562 0,-0.207031 0,-0.3125 0,-0.539062 -0.0039,-1.082031 -0.0039,-1.625 0,-0.558593 -0.0039,-1.117187 -0.0078,-1.675781 -0.0039,-0.429687 -0.0039,-0.859375 -0.0039,-1.289062 0,-0.207031 0,-0.414063 -0.0039,-0.617188 -0.01562,-2.203125 -0.01562,-2.203125 0.542969,-3.101562 C 41.886719,39.8125 42.496094,39.75 43.085938,39.757812 Z m 1.542968,3.195313 c -0.230468,0.59375 -0.402344,1.160156 -0.539062,1.808594 -0.136719,0.65625 -0.285156,1.3125 -0.441406,1.960937 -0.02734,0.128906 -0.02734,0.128906 -0.05859,0.257813 -0.0625,0.261719 -0.125,0.523437 -0.1875,0.785156 -0.08203,0.351563 -0.167969,0.703125 -0.25,1.054687 -0.03516,0.152344 -0.07422,0.304688 -0.109375,0.460938 -0.08594,0.308594 -0.08594,0.308594 -0.07813,0.480469 0.304687,0 0.609375,0 0.925781,0 0.08984,-0.433594 0.179687,-0.863281 0.277344,-1.308594 0.519531,0 1.039062,0 1.574219,0 0.152343,0.429687 0.304687,0.863281 0.460937,1.308594 0.277344,0 0.550781,0 0.832031,0 -0.0625,-0.527344 -0.171875,-1.003907 -0.304687,-1.503907 -0.152344,-0.59375 -0.296875,-1.183593 -0.421875,-1.785156 -0.253906,-1.1875 -0.550782,-2.351562 -0.84375,-3.519531 -0.277344,0 -0.550782,0 -0.835938,0 z m 3.148438,0 c 0,2.246094 0,4.492187 0,6.808594 0.277344,0 0.550781,0 0.832031,0 0,-2.246094 0,-4.492188 0,-6.808594 -0.273437,0 -0.546875,0 -0.832031,0 z m 0,0"
       id="path4" />
    <path
       style="fill:#070707;fill-opacity:1;fill-rule:nonzero;stroke:none"
       d="m 18.410156,8.675781 c 0.199219,0.230469 0.199219,0.230469 0.292969,0.621094 0.09375,0.042969 0.183594,0.085937 0.277344,0.132813 0.683593,1.246093 0.9375,2.632812 0.835937,4.1875 -0.164062,1.386718 -0.59375,2.578124 -1.371094,3.46875 -1.035156,1.015624 -2.007812,1.046874 -3.238281,0.960937 C 14.304688,17.726562 13.496094,16.816406 12.96875,15.742188 12.703125,15.085938 12.519531,14.515625 12.5,13.75 c -0.0039,-0.128906 -0.0078,-0.257812 -0.01172,-0.394531 -0.02734,-1.746094 0.25,-2.78125 0.953125,-4.207031 0.0586,-0.078126 0.113283,-0.160157 0.16797,-0.242188 0.09375,0 0.183594,0 0.28125,0 0.02734,-0.132812 0.05859,-0.261719 0.08984,-0.394531 1.316406,-1.332031 3.152343,-0.996094 4.429687,0.164062 z m -2.390625,3.894531 c 0,0.175782 0,0.347657 0,0.523438 0.121094,-0.04297 0.242188,-0.08594 0.371094,-0.128906 -0.03125,-0.128906 -0.0625,-0.261719 -0.09375,-0.394532 -0.09375,0 -0.183594,0 -0.277344,0 z m 0,0"
       id="path5" />
    <path
       style="fill:#050505;fill-opacity:1;fill-rule:nonzero;stroke:none"
       d="m 45.144531,8.644531 c 0.632813,0.738281 1.261719,1.886719 1.363281,3.070313 0.01563,0.363281 0.01563,0.726562 0.01563,1.09375 0,0.121094 0.0039,0.246094 0.0039,0.371094 0,1.480468 -0.371094,2.460937 -1.089844,3.519531 C 44.570312,17.816406 43.75,18.125 42.601562,18.097656 41.679688,18.015625 40.753906,17.429688 40.09375,16.5 c 0,-0.128906 0,-0.257812 0,-0.394531 C 40,16.0625 39.910156,16.019531 39.816406,15.976562 c -0.53125,-1.121093 -0.757812,-2.460937 -0.648437,-3.796874 0.160156,-1.074219 0.398437,-1.941407 0.925781,-2.75 0.05078,-0.082032 0.101562,-0.164063 0.152344,-0.25 C 41.5,7.265625 43.652344,7.292969 45.144531,8.644531 Z m -2.460937,3.925781 c 0.03125,0.175782 0.0625,0.347657 0.09375,0.523438 0.09375,-0.04297 0.183594,-0.08594 0.277344,-0.128906 -0.03125,-0.128906 -0.05859,-0.261719 -0.08984,-0.394532 -0.09375,0 -0.183594,0 -0.28125,0 z m 0,0"
       id="path6" />
    <path
       style="fill:#353535;fill-opacity:1;fill-rule:nonzero;stroke:none"
       d="m 44.90625,44.785156 c 0.09375,0.04297 0.183594,0.08594 0.277344,0.132813 0.109375,0.355469 0.109375,0.355469 0.203125,0.808593 0.03125,0.148438 0.06641,0.296876 0.09766,0.449219 0.07031,0.425781 0.08594,0.792969 0.07031,1.230469 -0.335938,0 -0.671876,0 -1.019532,0 -0.101562,-0.59375 -0.03125,-0.964844 0.08203,-1.53125 0.01953,-0.08984 0.03516,-0.179688 0.05469,-0.273438 0.128906,-0.664062 0.128906,-0.664062 0.234375,-0.816406 z m 0,0"
       id="path7" />
    <path
       style="fill:#5c5c5c;fill-opacity:1;fill-rule:nonzero;stroke:none"
       d="m 50.925781,41.117188 c 0.328125,0.464843 0.289063,0.921874 0.292969,1.546874 0,0.08984 0,0.179688 0,0.273438 0.0039,0.296875 0.0039,0.59375 0.0039,0.890625 0,0.207031 0,0.414063 0,0.621094 0.0039,0.429687 0.0039,0.863281 0.0039,1.296875 0,0.554687 0.0039,1.109375 0.0039,1.664062 0.0039,0.429688 0.0039,0.855469 0.0039,1.28125 0,0.207032 0,0.410156 0,0.613282 0.0039,0.289062 0.0039,0.574218 0.0039,0.859374 0,0.164063 0,0.328126 0,0.492188 -0.03516,0.414062 -0.03516,0.414062 -0.3125,0.9375 0,-3.457031 0,-6.914062 0,-10.476562 z m 0,0"
       id="path8" />
    <path
       style="fill:#545457;fill-opacity:1;fill-rule:nonzero;stroke:none"
       d="m 43.0625,39.777344 c 0.109375,-0.0039 0.109375,-0.0039 0.222656,-0.0039 0.242188,0 0.484375,0 0.730469,0 0.167969,0 0.335937,0 0.507813,0 0.351562,0 0.707031,0 1.058593,0 0.457031,0.0039 0.910157,0.0039 1.363281,0 0.351563,0 0.699219,0 1.046876,0 0.167968,0 0.335937,0 0.503906,0 0.234375,0 0.46875,0 0.699218,0.0039 0.07031,-0.0039 0.140626,-0.0039 0.210938,-0.0039 0.480469,0.0078 0.480469,0.0078 0.6875,0.296874 -0.07813,0 -0.07813,0 -0.160156,0 -1.589844,-0.01953 -3.183594,0.01172 -4.773438,0.05078 -0.234375,0.0039 -0.46875,0.01172 -0.703125,0.01563 -0.332031,0.0078 -0.667969,0.01563 -1,0.02344 -0.152343,0.0039 -0.152343,0.0039 -0.308593,0.0078 -0.140626,0.0039 -0.140626,0.0039 -0.28125,0.0078 -0.125,0.0039 -0.125,0.0039 -0.25,0.0078 -0.226563,0.0078 -0.226563,0.0078 -0.488282,0.148437 -0.08984,-0.08594 -0.183594,-0.171875 -0.277344,-0.261719 0.402344,-0.277343 0.769532,-0.296874 1.210938,-0.292968 z m 0,0"
       id="path9" />
    <path
       style="fill:#666668;fill-opacity:1;fill-rule:nonzero;stroke:none"
       d="m 41.019531,41.25 c 0.08984,0.171875 0.183594,0.347656 0.277344,0.523438 -0.09375,0.04297 -0.183594,0.08594 -0.277344,0.132812 0.0078,1.132812 0.01563,2.265625 0.02734,3.394531 0.0039,0.527344 0.0078,1.054688 0.01172,1.578125 0.0039,0.507813 0.0078,1.015625 0.01172,1.523438 0,0.195312 0.0039,0.386718 0.0039,0.582031 0,0.273437 0.0039,0.542969 0.0078,0.816406 0,0.152344 0.0039,0.308594 0.0039,0.464844 0.02344,0.410156 0.09766,0.695313 0.210937,1.066406 -0.03516,0.304688 -0.03516,0.304688 -0.09375,0.523438 -0.246094,-0.601563 -0.3125,-1.035157 -0.308594,-1.734375 0,-0.08984 -0.0039,-0.179688 -0.0039,-0.273438 0,-0.300781 0.0039,-0.601562 0.0039,-0.902344 0,-0.207031 0,-0.417968 0,-0.628906 0.0039,-0.4375 0.0039,-0.875 0.0039,-1.3125 0.0039,-0.558594 0.0039,-1.121094 0.0039,-1.679687 0.0039,-0.433594 0.0039,-0.867188 0.0039,-1.296875 0,-0.207032 0,-0.414063 0,-0.621094 0.0039,-0.289062 0.0039,-0.578125 0.0039,-0.867188 0,-0.164062 0.0039,-0.328124 0.0039,-0.496093 0.01172,-0.398438 0.01172,-0.398438 0.105469,-0.792969 z m 0,0"
       id="path10" />
    <path
       style="fill:#38383a;fill-opacity:1;fill-rule:nonzero;stroke:none"
       d="m 47.5,13.09375 c 0.03125,0 0.0625,0 0.09375,0 0.0625,0.351562 0.128906,0.703125 0.191406,1.058594 0.01563,0.09766 0.03516,0.195312 0.05469,0.296875 0.128906,0.746093 0.125,1.34375 -0.03125,2.089843 -0.01172,0.07422 -0.01953,0.148438 -0.03125,0.222657 0.0625,0.08594 0.121094,0.171875 0.1875,0.261719 -0.234375,0.328124 -0.234375,0.328124 -0.464844,0.65625 0.0078,-0.15625 0.01563,-0.3125 0.02344,-0.472657 0.0625,-1.386719 0.0625,-2.726562 -0.02344,-4.113281 z m 0,0"
       id="path11" />
    <path
       style="fill:#949494;fill-opacity:1;fill-rule:nonzero;stroke:none"
       d="m 40.277344,0.394531 c 0,0.042969 0,0.085938 0,0.128907 -0.05469,0.003906 -0.109375,0.003906 -0.167969,0.007812 -0.25,0.011719 -0.503906,0.027344 -0.757813,0.042969 -0.128906,0.003906 -0.128906,0.003906 -0.261718,0.011719 -0.398438,0.023437 -0.769532,0.058593 -1.152344,0.203124 -0.332031,0.125 -0.605469,0.15625 -0.945312,0.144532 C 36.894531,0.929688 36.796875,0.929688 36.699219,0.925781 36.625,0.921875 36.554688,0.917969 36.480469,0.917969 c 0,-0.042969 0,-0.085938 0,-0.132813 1.265625,-0.449218 2.5,-0.433594 3.796875,-0.390625 z m 0,0"
       id="path12" />
    <path
       style="fill:#4a4a4a;fill-opacity:1;fill-rule:nonzero;stroke:none"
       d="m 1.851562,13.09375 c 0.03125,0 0.0625,0 0.09375,0 0,1.515625 0,3.027344 0,4.585938 0.058594,0 0.121094,0 0.183594,0 0,0.429687 0,0.863281 0,1.308593 -0.265625,-0.75 -0.289062,-1.328125 -0.285156,-2.160156 0,-0.105469 0,-0.210937 0,-0.324219 0,-0.339844 0,-0.679687 0.00391,-1.019531 0,-0.230469 0,-0.460937 0,-0.691406 0,-0.566407 0.00391,-1.132813 0.00391,-1.699219 z m 0,0"
       id="path13" />
    <path
       style="fill:#99999c;fill-opacity:1;fill-rule:nonzero;stroke:none"
       d="m 39.257812,11.523438 c 0.03125,0 0.0625,0 0.09375,0 0.0039,0.113281 0.0039,0.113281 0.0039,0.230468 0.0078,0.347656 0.01563,0.691406 0.02344,1.039063 0.0039,0.117187 0.0078,0.238281 0.0078,0.363281 0.01953,0.664062 0.05469,1.085938 0.335937,1.640625 0.0625,0.5 0.0625,0.5 0.09375,0.917969 -0.5,-0.679688 -0.617187,-1.652344 -0.671875,-2.597656 -0.0039,-0.542969 0.01563,-1.0625 0.113281,-1.59375 z m 0,0"
       id="path14" />
    <path
       style="fill:#4c4c4f;fill-opacity:1;fill-rule:nonzero;stroke:none"
       d="m 13.980469,8.511719 c 0.0625,0.042969 0.125,0.085937 0.1875,0.132812 -0.222657,0.453125 -0.421875,0.859375 -0.703125,1.242188 -0.265625,0.386719 -0.414063,0.765625 -0.59375,1.246093 -0.0625,0 -0.121094,0 -0.1875,0 0.210937,-0.816406 0.507812,-1.59375 0.925781,-2.226562 0.09375,0 0.183594,0 0.28125,0 0.02734,-0.132812 0.05859,-0.261719 0.08984,-0.394531 z m 0,0"
       id="path15" />
    <path
       style="fill:#515154;fill-opacity:1;fill-rule:nonzero;stroke:none"
       d="m 46.390625,21.605469 c 0.02734,0.175781 0.05859,0.347656 0.08984,0.527343 -0.05859,0 -0.121094,0 -0.183594,0 0.0078,0.117188 0.01953,0.234376 0.02734,0.359376 -0.02734,0.425781 -0.02734,0.425781 -0.234375,0.703124 -0.128906,0.121094 -0.128906,0.121094 -0.257813,0.246094 -0.125,0.171875 -0.246093,0.34375 -0.367187,0.523438 -0.09375,-0.04297 -0.183594,-0.08594 -0.28125,-0.132813 0.09375,-0.04297 0.183594,-0.08594 0.28125,-0.128906 0.09375,-0.238281 0.09375,-0.238281 0.183594,-0.523437 0.109374,-0.226563 0.21875,-0.449219 0.328124,-0.671876 0.222657,-0.4375 0.222657,-0.4375 0.414063,-0.902343 z m 0,0"
       id="path16" />
    <path
       style="fill:#686868;fill-opacity:1;fill-rule:nonzero;stroke:none"
       d="m 45.058594,48.3125 c 0.09766,0 0.09766,0 0.199218,0.0039 0.160157,0 0.320313,0.0039 0.484376,0.0039 0.05859,0.21875 0.121093,0.433594 0.183593,0.65625 -0.0625,0 -0.121093,0 -0.183593,0 -0.0625,-0.08594 -0.125,-0.171874 -0.1875,-0.261718 -0.238282,-0.01953 -0.464844,-0.02344 -0.707032,-0.01563 -0.0625,0 -0.128906,0 -0.195312,0.0039 -0.164063,0 -0.324219,0.0078 -0.484375,0.01172 0,-0.08594 0,-0.171875 0,-0.261719 0.28125,-0.203125 0.578125,-0.144531 0.890625,-0.140625 z m 0,0"
       id="path17" />
    <path
       style="fill:#3d3d3d;fill-opacity:1;fill-rule:nonzero;stroke:none"
       d="M 5.742188,3.535156 C 5.800781,3.578125 5.863281,3.621094 5.925781,3.667969 5.746094,3.984375 5.574219,4.296875 5.371094,4.582031 5.273438,4.742188 5.175781,4.898438 5.082031,5.058594 5.03125,5.140625 4.980469,5.222656 4.929688,5.308594 4.890625,5.371094 4.855469,5.433594 4.816406,5.5 4.691406,5.457031 4.570312,5.414062 4.445312,5.367188 4.871094,4.765625 5.300781,4.160156 5.742188,3.535156 Z m 0,0"
       id="path18" />
    <path
       style="fill:#575757;fill-opacity:1;fill-rule:nonzero;stroke:none"
       d="M 36.390625,1.046875 C 36.335938,1.082031 36.285156,1.113281 36.234375,1.148438 36.167969,1.195312 36.097656,1.238281 36.03125,1.285156 35.964844,1.328125 35.898438,1.375 35.828125,1.417969 35.621094,1.570312 35.621094,1.570312 35.464844,1.964844 35.1875,1.921875 34.914062,1.878906 34.628906,1.832031 34.917969,1.5625 35.1875,1.398438 35.507812,1.21875 c 0.109376,-0.058594 0.214844,-0.117188 0.324219,-0.179688 0.277344,-0.121093 0.277344,-0.121093 0.558594,0.00781 z m 0,0"
       id="path19" />
    <path
       style="fill:#232326;fill-opacity:1;fill-rule:nonzero;stroke:none"
       d="m 42.640625,39.925781 c 0.121094,0.0039 0.242187,0.0039 0.367187,0.0039 0.128907,0 0.253907,0 0.382813,0.0039 0.128906,0 0.257813,0 0.386719,0 0.316406,0.0039 0.628906,0.0039 0.945312,0.0078 0,0.04297 0,0.08594 0,0.128906 -0.07031,0.0039 -0.136718,0.0078 -0.207031,0.01172 -0.3125,0.01563 -0.621094,0.03125 -0.933594,0.04687 -0.109375,0.0039 -0.214843,0.01172 -0.328125,0.01563 -0.101562,0.0039 -0.207031,0.01172 -0.3125,0.01563 -0.144531,0.0078 -0.144531,0.0078 -0.289062,0.01563 -0.253906,0.01563 -0.253906,0.01563 -0.523438,0.15625 -0.08984,-0.08594 -0.183594,-0.171875 -0.277344,-0.261719 0.265626,-0.1875 0.496094,-0.144531 0.789063,-0.144531 z m 0,0"
       id="path20" />
    <path
       style="fill:#4f4f51;fill-opacity:1;fill-rule:nonzero;stroke:none"
       d="m 30.925781,48.191406 c -0.429687,0.511719 -0.941406,0.675782 -1.5,0.640625 -0.148437,-0.03125 -0.296875,-0.07422 -0.445312,-0.117187 0,-0.04297 0,-0.08594 0,-0.132813 0.238281,-0.06641 0.476562,-0.128906 0.710937,-0.195312 0.07031,-0.01953 0.136719,-0.03906 0.203125,-0.05469 0.351563,-0.09766 0.675781,-0.164062 1.03125,-0.140625 z m 0,0"
       id="path21" />
    <path
       style="fill:#575757;fill-opacity:1;fill-rule:nonzero;stroke:none"
       d="m 39.535156,42.429688 c 0.0625,0.04297 0.125,0.08594 0.1875,0.128906 -0.332031,0.625 -0.621094,0.957031 -1.113281,1.308594 -0.05859,-0.08594 -0.121094,-0.171876 -0.183594,-0.261719 0.07422,-0.07422 0.144531,-0.148438 0.21875,-0.222657 0.09375,-0.09766 0.1875,-0.191406 0.285157,-0.292968 0.09375,-0.09375 0.1875,-0.191406 0.28125,-0.289063 0.21875,-0.210937 0.21875,-0.210937 0.324218,-0.371093 z m 0,0"
       id="path22" />
    <path
       style="fill:#575759;fill-opacity:1;fill-rule:nonzero;stroke:none"
       d="m 8.332031,4.320312 c 0.183594,0 0.367188,0 0.558594,0 C 8.617188,4.628906 8.34375,4.851562 8.03125,5.066406 7.910156,5.152344 7.910156,5.152344 7.78125,5.238281 7.71875,5.28125 7.65625,5.324219 7.59375,5.367188 7.53125,5.28125 7.46875,5.195312 7.40625,5.105469 7.46875,5.0625 7.53125,5.019531 7.59375,4.976562 7.652344,5.019531 7.714844,5.0625 7.777344,5.105469 7.808594,4.933594 7.839844,4.761719 7.871094,4.582031 7.992188,4.625 8.113281,4.667969 8.242188,4.714844 8.269531,4.585938 8.300781,4.453125 8.332031,4.320312 Z m 0,0"
       id="path23" />
    <path
       style="fill:#4f4f4f;fill-opacity:1;fill-rule:nonzero;stroke:none"
       d="m 47.035156,49.5 c 0.0625,0.04297 0.125,0.08594 0.1875,0.132812 -0.03125,0.171876 -0.0625,0.34375 -0.09375,0.523438 -0.304687,0 -0.609375,0 -0.925781,0 -0.03125,-0.175781 -0.05859,-0.347656 -0.09375,-0.523438 0.308594,0.04297 0.613281,0.08594 0.925781,0.128907 0,-0.08594 0,-0.171875 0,-0.261719 z m 0,0"
       id="path24" />
    <path
       style="fill:#6e6e6e;fill-opacity:1;fill-rule:nonzero;stroke:none"
       d="m 11.109375,0.523438 c -0.02734,0.085937 -0.05859,0.171874 -0.08984,0.261718 C 10.47266,1.003906 9.917973,1.082031 9.351566,1.046875 9.898442,0.628906 10.492192,0.480469 11.109379,0.523438 Z m 0,0"
       id="path25" />
    <path
       style="fill:#6e6e6e;fill-opacity:1;fill-rule:nonzero;stroke:none"
       d="m 38.054688,43.867188 c 0.0625,0.04687 0.125,0.08984 0.1875,0.132812 -0.421876,0.636719 -0.773438,0.945312 -1.390626,1.046875 0.210938,-0.328125 0.429688,-0.527344 0.707032,-0.734375 0.265625,-0.1875 0.265625,-0.1875 0.496094,-0.445312 z m 0,0"
       id="path26" />
    <path
       style="fill:#595959;fill-opacity:1;fill-rule:nonzero;stroke:none"
       d="m 45.554688,43.34375 c 0.0625,0 0.125,0 0.1875,0 0.0625,0.207031 0.128906,0.410156 0.191406,0.617188 0.03516,0.113281 0.07031,0.226562 0.105468,0.34375 0.08203,0.390624 0.05859,0.617187 -0.01953,1.003906 -0.164062,-0.34375 -0.246093,-0.597656 -0.335937,-0.980469 -0.03516,-0.152344 -0.03516,-0.152344 -0.07422,-0.308594 -0.05469,-0.28125 -0.05469,-0.28125 -0.05469,-0.675781 z m 0,0"
       id="path27" />
    <path
       style="fill:#616163;fill-opacity:1;fill-rule:nonzero;stroke:none"
       d="m 44.074219,25.40625 c 0,0.08594 0,0.171875 0,0.261719 -0.320313,0.335937 -0.632813,0.625 -1.019531,0.785156 -0.199219,-0.0625 -0.199219,-0.0625 -0.371094,-0.132813 0.06641,-0.04297 0.128906,-0.08594 0.195312,-0.132812 0.08203,-0.05859 0.164063,-0.117188 0.25,-0.175781 0.08594,-0.05859 0.167969,-0.117188 0.253906,-0.175781 0.585938,-0.429688 0.585938,-0.429688 0.691407,-0.429688 z m 0,0"
       id="path28" />
    <path
       style="fill:#6b6b6b;fill-opacity:1;fill-rule:nonzero;stroke:none"
       d="m 40.925781,3.273438 c 0,0.085937 0,0.171874 0,0.261718 0.152344,0 0.304688,0 0.464844,0 0,0.042969 0,0.085938 0,0.132813 -0.621094,-0.078125 -1.238281,-0.164063 -1.855469,-0.261719 0,-0.042969 0,-0.089844 0,-0.132812 0.199219,-0.023438 0.394532,-0.050782 0.59375,-0.074219 0.109375,-0.011719 0.21875,-0.027344 0.332032,-0.039063 0.28125,-0.015625 0.28125,-0.015625 0.464843,0.113282 z m 0,0"
       id="path29" />
    <path
       style="fill:#6b6b70;fill-opacity:1;fill-rule:nonzero;stroke:none"
       d="m 37.128906,3.273438 c 0.519532,0 1.039063,0 1.574219,0 0,0.042968 0,0.085937 0,0.132812 -0.519531,0.085938 -1.039063,0.171875 -1.574219,0.261719 0,-0.132813 0,-0.261719 0,-0.394531 z m 0,0"
       id="path30" />
    <path
       style="fill:#636161;fill-opacity:1;fill-rule:nonzero;stroke:none"
       d="m 46.390625,46.617188 c 0.371094,0.601562 0.496094,1.308593 0.460937,2.097656 -0.507812,-1.382813 -0.507812,-1.382813 -0.460937,-2.097656 z m 0,0"
       id="path31" />
    <path
       style="fill:#8a8a8c;fill-opacity:1;fill-rule:nonzero;stroke:none"
       d="m 10.039062,41.25 c 0.07422,0.06641 0.07422,0.06641 0.144532,0.132812 C 10.125,41.46875 10.0625,41.554688 10,41.644531 c 0,-0.08984 0,-0.175781 0,-0.261719 -0.070312,0.0078 -0.144531,0.01953 -0.214844,0.03125 -0.140625,0.01953 -0.140625,0.01953 -0.28125,0.03906 -0.140625,0.02344 -0.140625,0.02344 -0.28125,0.04297 C 8.980469,41.511722 8.980469,41.511722 8.796875,41.38281 9.1875,41.027344 9.613281,41 10.039062,41.25 Z m 0,0"
       id="path32" />
    <path
       style="fill:#737373;fill-opacity:1;fill-rule:nonzero;stroke:none"
       d="m 28.703125,18.070312 c 0.0625,0 0.121094,0 0.1875,0 0.128906,0.371094 0.121094,0.71875 0.144531,1.128907 0.0078,0.15625 0.01563,0.3125 0.02344,0.472656 0.0039,0.121094 0.0078,0.242187 0.01563,0.363281 -0.160157,-0.34375 -0.222657,-0.523437 -0.289063,-0.90625 -0.01563,-0.08984 -0.03125,-0.175781 -0.04687,-0.265625 -0.03516,-0.269531 -0.03516,-0.269531 -0.03516,-0.792969 z m 0,0"
       id="path33" />
    <path
       style="fill:#353538;fill-opacity:1;fill-rule:nonzero;stroke:none"
       d="m 46.109375,4.191406 c 0.214844,0.257813 0.429687,0.519532 0.648437,0.785156 -0.05859,0.085938 -0.121093,0.171876 -0.183593,0.261719 0,-0.085937 0,-0.171875 0,-0.261719 -0.0625,0 -0.121094,0 -0.183594,0 -0.03125,0.085938 -0.0625,0.171876 -0.09375,0.261719 -0.164063,-0.40625 -0.1875,-0.554687 -0.1875,-1.046875 z m 0,0"
       id="path34" />
    <path
       style="fill:#595959;fill-opacity:1;fill-rule:nonzero;stroke:none"
       d="m 13.242188,9.558594 c 0.08984,0.394531 0.08984,0.394531 0,0.691406 -0.04688,0.101562 -0.08984,0.207031 -0.132813,0.316406 -0.06641,0.160156 -0.06641,0.160156 -0.132813,0.320313 -0.03516,0.08203 -0.07031,0.160156 -0.105468,0.246093 -0.0625,0 -0.121094,0 -0.1875,0 0.148437,-0.566406 0.34375,-1.058593 0.558594,-1.574218 z m 0,0"
       id="path35" />
    <path
       style="fill:#707073;fill-opacity:1;fill-rule:nonzero;stroke:none"
       d="m 42.035156,26.84375 c -0.02734,0.132812 -0.05859,0.261719 -0.08984,0.394531 -0.410156,0.144531 -0.785156,0.140625 -1.203124,0.128907 0,-0.04297 0,-0.08594 0,-0.128907 0.05469,-0.01563 0.113281,-0.03516 0.175781,-0.05469 0.07422,-0.01953 0.148437,-0.04297 0.226562,-0.06641 0.07813,-0.02344 0.152344,-0.04688 0.230469,-0.07031 0.574219,-0.203125 0.574219,-0.203125 0.660156,-0.203125 z m 0,0"
       id="path36" />
    <path
       style="fill:#595959;fill-opacity:1;fill-rule:nonzero;stroke:none"
       d="m 47.59375,15.714844 c 0.03125,0 0.05859,0 0.08984,0 0.01953,0.265625 0.03906,0.527344 0.05469,0.792968 0.02734,0.285157 0.02734,0.285157 0.226563,0.515626 -0.15625,0.21875 -0.308594,0.4375 -0.464844,0.65625 0.03125,-0.648438 0.0625,-1.296876 0.09375,-1.964844 z m 0,0"
       id="path37" />
    <path
       style="fill:#575759;fill-opacity:1;fill-rule:nonzero;stroke:none"
       d="m 41.019531,41.25 c 0.08984,0.171875 0.183594,0.347656 0.277344,0.523438 -0.09375,0.04297 -0.183594,0.08594 -0.277344,0.132812 0,0.472656 0,0.949219 0,1.4375 -0.03125,0 -0.0625,0 -0.09375,0 -0.0039,-0.273438 -0.0039,-0.550781 -0.0039,-0.824219 -0.0039,-0.15625 -0.0039,-0.308593 -0.0039,-0.464843 0.0078,-0.410157 0.0078,-0.410157 0.101562,-0.804688 z m 0,0"
       id="path38" />
    <path
       style="fill:#545457;fill-opacity:1;fill-rule:nonzero;stroke:none"
       d="m 44.90625,27.5 c 0.125,0.08594 0.246094,0.171875 0.371094,0.261719 -0.457032,0.390625 -0.457032,0.390625 -0.925782,0.785156 0,-0.128906 0,-0.257813 0,-0.390625 0.09375,0 0.183594,0 0.277344,0 0,-0.08984 0,-0.175781 0,-0.261719 0.09375,0 0.183594,0 0.277344,0 0,-0.132812 0,-0.261719 0,-0.394531 z m 0,0"
       id="path39" />
    <path
       style="fill:#616161;fill-opacity:1;fill-rule:nonzero;stroke:none"
       d="m 19.445312,22.132812 c 0.07422,0.21875 0.07422,0.21875 0.08984,0.523438 -0.222656,0.359375 -0.222656,0.359375 -0.460937,0.652344 -0.0625,-0.04297 -0.121094,-0.08594 -0.183594,-0.128906 0.05859,-0.128907 0.121094,-0.261719 0.183594,-0.394532 0.0625,0 0.121093,0 0.183593,0 0.01563,-0.08203 0.02734,-0.167968 0.04297,-0.253906 0.05078,-0.269531 0.05078,-0.269531 0.144531,-0.398438 z m 0,0"
       id="path40" />
    <path
       style="fill:#545457;fill-opacity:1;fill-rule:nonzero;stroke:none"
       d="m 20.183594,20.035156 c 0.03125,0 0.0625,0 0.09375,0 0.03125,0.261719 0.0625,0.519532 0.09375,0.785156 -0.0625,0 -0.121094,0 -0.1875,0 C 20.125,21.039062 20.0625,21.253906 20,21.476562 c -0.0625,0 -0.121094,0 -0.183594,0 0.109375,-0.488281 0.230469,-0.964843 0.367188,-1.441406 z m 0,0"
       id="path41" />
    <path
       style="fill:#7d7d7d;fill-opacity:1;fill-rule:nonzero;stroke:none"
       d="m 1.851562,17.15625 c 0.03125,0.171875 0.0625,0.34375 0.09375,0.523438 0.058594,0 0.121094,0 0.183594,0 0,0.429687 0,0.863281 0,1.308593 C 1.960938,18.511719 1.914062,18.285156 1.886719,17.777344 1.878906,17.660156 1.871094,17.542969 1.867188,17.421875 1.859375,17.335938 1.855469,17.246094 1.851562,17.15625 Z m 0,0"
       id="path42" />
    <path
       style="fill:#616161;fill-opacity:1;fill-rule:nonzero;stroke:none"
       d="m 2.40625,10.34375 c 0.0625,0.132812 0.125,0.261719 0.1875,0.394531 -0.0625,0 -0.125,0 -0.1875,0 0.03125,0.214844 0.0625,0.433594 0.09375,0.65625 -0.089844,0.04297 -0.183594,0.08594 -0.277344,0.128907 -0.066406,0.265624 -0.066406,0.265624 -0.09375,0.523437 0.011719,-0.183594 0.023438,-0.371094 0.035156,-0.554687 0.00781,-0.105469 0.011719,-0.207032 0.019532,-0.3125 0.039062,-0.320313 0.113281,-0.550782 0.222656,-0.835938 z m 0,0"
       id="path43" />
    <path
       style="fill:#4a4a4a;fill-opacity:1;fill-rule:nonzero;stroke:none"
       d="m 32.964844,3.144531 c 0.05859,0.042969 0.121094,0.085938 0.183594,0.128907 -0.207032,0.4375 -0.300782,0.632812 -0.671876,0.761718 -0.125,0.011719 -0.125,0.011719 -0.253906,0.023438 0.234375,-0.339844 0.46875,-0.640625 0.742188,-0.914063 z m 0,0"
       id="path44" />
    <path
       style="fill:#5c5c5c;fill-opacity:1;fill-rule:nonzero;stroke:none"
       d="m 35.832031,49.5 c 0.230469,0.128906 0.230469,0.128906 0.464844,0.261719 -0.296875,0.371093 -0.535156,0.460937 -0.925781,0.523437 0,-0.08594 0,-0.171875 0,-0.261718 0.121094,0 0.242187,0 0.371094,0 0.02734,-0.171876 0.05859,-0.34375 0.08984,-0.523438 z m 0,0"
       id="path45" />
    <path
       style="fill:#616163;fill-opacity:1;fill-rule:nonzero;stroke:none"
       d="m 34.722656,46.617188 c -0.175781,0.25 -0.308594,0.386718 -0.558594,0.421874 -0.1875,-0.0039 -0.371093,-0.01562 -0.554687,-0.02734 0,-0.04297 0,-0.08594 0,-0.128907 0.08984,-0.04297 0.175781,-0.08203 0.269531,-0.125 0.546875,-0.265624 0.546875,-0.265624 0.84375,-0.140624 z m 0,0"
       id="path46" />
    <path
       style="fill:#636366;fill-opacity:1;fill-rule:nonzero;stroke:none"
       d="m 41.703125,8.027344 c 0.04687,0.03125 0.09766,0.0625 0.148437,0.089844 -0.53125,0.507812 -0.53125,0.507812 -0.742187,0.65625 0,-0.085938 0,-0.171876 0,-0.261719 -0.05859,-0.042969 -0.121094,-0.085938 -0.183594,-0.128907 0.5,-0.40625 0.5,-0.40625 0.777344,-0.355468 z m 0,0"
       id="path47" />
    <path
       style="fill:#5e5e5e;fill-opacity:1;fill-rule:nonzero;stroke:none"
       d="m 32.128906,4.058594 c 0.03125,0.085937 0.0625,0.171875 0.09375,0.261718 C 32.070312,4.582031 31.917969,4.839844 31.757812,5.105469 31.667969,5.0625 31.574219,5.019531 31.480469,4.976562 31.695312,4.671875 31.910156,4.371094 32.128906,4.058594 Z m 0,0"
       id="path48" />
    <path
       style="fill:#707070;fill-opacity:1;fill-rule:nonzero;stroke:none"
       d="m 20.554688,51.988281 c 0,0.08594 0,0.171875 0,0.261719 0.09375,0.04297 0.183593,0.08594 0.277343,0.132812 -0.792969,-0.113281 -0.792969,-0.113281 -1.109375,-0.394531 0.3125,-0.109375 0.523438,-0.144531 0.832032,0 z m 0,0"
       id="path49" />
    <path
       style="fill:#616161;fill-opacity:1;fill-rule:nonzero;stroke:none"
       d="m 3.796875,16.632812 c 0.03125,0 0.058594,0 0.09375,0 C 3.921875,16.816406 3.957031,17 3.988281,17.1875 c 0.015625,0.101562 0.035157,0.207031 0.054688,0.3125 0.03125,0.324219 0.00781,0.527344 -0.0625,0.832031 -0.203125,-0.433593 -0.203125,-0.566406 -0.195313,-1.070312 0,-0.117188 0.00391,-0.238281 0.00391,-0.359375 0.00391,-0.08984 0.00391,-0.179688 0.00781,-0.269532 z m 0,0"
       id="path50" />
    <path
       style="fill:#59595c;fill-opacity:1;fill-rule:nonzero;stroke:none"
       d="m 2.871094,8.644531 c 0.089844,0.390625 0.113281,0.660157 0,1.046875 C 2.777344,9.734375 2.6875,9.777344 2.59375,9.820312 2.65625,9.410156 2.753906,9.03125 2.871094,8.644531 Z m 0,0"
       id="path51" />
    <path
       style="fill:#68686b;fill-opacity:1;fill-rule:nonzero;stroke:none"
       d="m 42.222656,4.058594 c 0.273438,0.042968 0.550782,0.085937 0.832032,0.132812 0.03125,0.171875 0.0625,0.34375 0.09375,0.523438 C 43.011719,4.65625 42.875,4.59375 42.738281,4.535156 42.660156,4.5 42.585938,4.46875 42.507812,4.433594 42.316406,4.320312 42.316406,4.320312 42.222656,4.058594 Z m 0,0"
       id="path52" />
    <path
       style="fill:#615e61;fill-opacity:1;fill-rule:nonzero;stroke:none"
       d="m 28.609375,52.382812 c 0.246094,0.04297 0.492187,0.08594 0.742187,0.128907 0,0.04297 0,0.08594 0,0.132812 -0.304687,0.04297 -0.609374,0.08594 -0.925781,0.128907 0.0625,-0.04297 0.121094,-0.08594 0.183594,-0.128907 0,-0.08984 0,-0.175781 0,-0.261719 z m 0,0"
       id="path53" />
    <path
       style="fill:#59595c;fill-opacity:1;fill-rule:nonzero;stroke:none"
       d="m 50.832031,51.59375 c 0.03125,0.132812 0.0625,0.261719 0.09375,0.394531 -0.152343,0.171875 -0.304687,0.34375 -0.460937,0.523438 0.02734,-0.3125 0.02734,-0.3125 0.08984,-0.65625 0.09375,-0.08594 0.183593,-0.171875 0.277343,-0.261719 z m 0,0"
       id="path54" />
    <path
       style="fill:#737373;fill-opacity:1;fill-rule:nonzero;stroke:none"
       d="m 38.796875,47.667969 c 0.121094,0.04297 0.242187,0.08594 0.371094,0.128906 -0.625,0.523437 -0.625,0.523437 -0.835938,0.523437 0.03125,-0.128906 0.0625,-0.257812 0.09375,-0.390624 0.121094,0 0.246094,0 0.371094,0 0,-0.08594 0,-0.175782 0,-0.261719 z m 0,0"
       id="path55" />
    <path
       style="fill:#636366;fill-opacity:1;fill-rule:nonzero;stroke:none"
       d="m 46.109375,14.796875 c 0.07031,0.214844 0.07031,0.214844 0.09375,0.523437 -0.179687,0.425782 -0.179687,0.425782 -0.371094,0.785157 -0.02734,-0.171875 -0.05859,-0.34375 -0.08984,-0.523438 0.08984,-0.04297 0.183593,-0.08594 0.277343,-0.128906 0.03125,-0.21875 0.05859,-0.433594 0.08984,-0.65625 z m 0,0"
       id="path56" />
    <path
       style="fill:#787878;fill-opacity:1;fill-rule:nonzero;stroke:none"
       d="M 5.742188,3.535156 C 5.800781,3.578125 5.863281,3.621094 5.925781,3.667969 5.679688,4.15625 5.5,4.40625 5.09375,4.582031 5.183594,4.433594 5.273438,4.28125 5.363281,4.132812 5.414062,4.050781 5.464844,3.964844 5.519531,3.878906 5.589844,3.761719 5.664062,3.644531 5.742188,3.535156 Z m 0,0"
       id="path57" />
    <path
       style="fill:#787878;fill-opacity:1;fill-rule:nonzero;stroke:none"
       d="m 11.355469,3.199219 c 0.08984,0.015625 0.183593,0.027343 0.28125,0.042969 0.07031,0.00781 0.140625,0.019531 0.214843,0.03125 0,0.042968 0,0.085937 0,0.132812 -0.59375,0.0625 -0.59375,0.0625 -1.203124,0.128906 0,-0.085937 0,-0.171875 0,-0.261718 0.253906,-0.179688 0.425781,-0.113282 0.707031,-0.074219 z m 0,0"
       id="path58" />
    <path
       style="fill:#757575;fill-opacity:1;fill-rule:nonzero;stroke:none"
       d="m 10.925781,29.988281 c 0,0.08594 0,0.171875 0,0.261719 0.09375,0.04297 0.183594,0.08594 0.277344,0.132812 -0.367187,-0.04687 -0.734375,-0.08984 -1.109375,-0.132812 0,-0.04297 0,-0.08594 0,-0.132812 0.625,-0.128907 0.625,-0.128907 0.832031,-0.128907 z m 0,0"
       id="path59" />
    <path
       style="fill:#5c5c5c;fill-opacity:1;fill-rule:nonzero;stroke:none"
       d="m 41.757812,29.464844 c 0.0625,0 0.125,0 0.1875,0 0,0.08594 0,0.171875 0,0.261718 0.320313,-0.06641 0.320313,-0.06641 0.648438,-0.132812 -0.257812,0.363281 -0.484375,0.339844 -0.835938,0.394531 0,-0.171875 0,-0.347656 0,-0.523437 z m 0,0"
       id="path60" />
    <path
       style="fill:#515154;fill-opacity:1;fill-rule:nonzero;stroke:none"
       d="m 29.351562,21.214844 c 0.09375,0.04297 0.183594,0.08594 0.277344,0.128906 0.03125,0.304688 0.0625,0.605469 0.09375,0.917969 -0.371094,-0.605469 -0.371094,-0.605469 -0.371094,-1.046875 z m 0,0"
       id="path61" />
    <path
       style="fill:#616161;fill-opacity:1;fill-rule:nonzero;stroke:none"
       d="m 39.445312,14.535156 c 0.136719,0.128906 0.136719,0.128906 0.277344,0.261719 0.0625,0.476563 0.0625,0.476563 0.09375,0.917969 C 39.445312,15.125 39.445312,15.125 39.445312,14.535156 Z m 0,0"
       id="path62" />
    <path
       style="fill:#575757;fill-opacity:1;fill-rule:nonzero;stroke:none"
       d="m 40.371094,9.035156 c 0,0.464844 -0.0625,0.578125 -0.277344,0.917969 C 40,9.996094 39.910156,10.039062 39.816406,10.082031 39.949219,9.640625 40.125,9.363281 40.371094,9.035156 Z m 0,0"
       id="path63" />
    <path
       style="fill:#616163;fill-opacity:1;fill-rule:nonzero;stroke:none"
       d="M 7.128906,5.367188 C 7.25,5.414062 7.375,5.457031 7.5,5.5 7.226562,5.824219 7.226562,5.824219 6.945312,6.15625 c -0.0625,-0.132812 -0.125,-0.261719 -0.1875,-0.394531 0.125,0 0.246094,0 0.371094,0 0,-0.128907 0,-0.257813 0,-0.394531 z m 0,0"
       id="path64" />
    <path
       style="fill:#616161;fill-opacity:1;fill-rule:nonzero;stroke:none"
       d="m 16.757812,4.582031 c 0.125,0.21875 0.246094,0.433594 0.371094,0.65625 -0.332031,0 -0.46875,-0.144531 -0.738281,-0.394531 0.121094,-0.085938 0.242187,-0.171875 0.367187,-0.261719 z m 0,0"
       id="path65" />
    <path
       style="fill:#616161;fill-opacity:1;fill-rule:nonzero;stroke:none"
       d="m 15.832031,4.058594 c 0.183594,0.128906 0.367188,0.261718 0.558594,0.394531 0,0.085937 0,0.171875 0,0.261719 -0.277344,-0.128906 -0.550781,-0.261719 -0.835937,-0.394532 0.09375,-0.085937 0.183593,-0.171874 0.277343,-0.261718 z m 0,0"
       id="path66" />
    <path
       style="fill:#6b6b6e;fill-opacity:1;fill-rule:nonzero;stroke:none"
       d="m 13.980469,3.273438 c 0,0.085937 0,0.171874 0,0.261718 -0.335938,-0.042968 -0.671875,-0.085937 -1.015625,-0.128906 0,-0.042969 0,-0.089844 0,-0.132812 0.703125,-0.148438 0.703125,-0.148438 1.015625,0 z m 0,0"
       id="path67" />
    <path
       style="fill:#000000;fill-opacity:1;fill-rule:nonzero;stroke:none"
       d="m 23.589844,15.441406 c 0,-8.589844 -4.960938,-15.554687 -11.078125,-15.554687 -6.117188,0 -11.078125,6.964843 -11.078125,15.554687 0,8.589844 4.960937,15.550782 11.078125,15.550782 6.117187,0 11.078125,-6.960938 11.078125,-15.550782 z m 0,0"
       id="path68" />
    <path
       style="fill:#000000;fill-opacity:1;fill-rule:nonzero;stroke:none"
       d="m 50.453125,15.347656 c 0,-8.589844 -4.957031,-15.554687 -11.078125,-15.554687 -6.117188,0 -11.074219,6.964843 -11.074219,15.554687 0,8.589844 4.957031,15.550782 11.074219,15.550782 6.121094,0 11.078125,-6.960938 11.078125,-15.550782 z m 0,0"
       id="path69" />
    <path
       style="fill:#000000;fill-opacity:1;fill-rule:nonzero;stroke:none"
       d="m 12.988281,30.542969 c 0,-0.621094 -0.01563,-1.128907 -0.03906,-1.128907 -0.02344,0 -0.03906,0.507813 -0.03906,1.128907 0,0.621093 0.01563,1.128906 0.03906,1.128906 0.02344,0 0.03906,-0.507813 0.03906,-1.128906 z m 0,0"
       id="path70" />
    <path
       style="fill:#000000;fill-opacity:1;fill-rule:nonzero;stroke:none"
       d="m 14.824219,14.03125 c 0,-2.832031 -0.01953,-5.128906 -0.04297,-5.128906 -0.01953,0 -0.03906,2.296875 -0.03906,5.128906 0,2.832031 0.01953,5.128906 0.03906,5.128906 0.02344,0 0.04297,-2.296875 0.04297,-5.128906 z m 0,0"
       id="path71" />
    <path
       style="fill:#ffffff;fill-opacity:1;fill-rule:nonzero;stroke:none"
       d="m 22.152344,15.328125 c 0,-7.34375 -4.316406,-13.300781 -9.640625,-13.300781 -5.324219,0 -9.644531,5.957031 -9.644531,13.300781 0,7.34375 4.320312,13.300781 9.644531,13.300781 5.324219,0 9.640625,-5.957031 9.640625,-13.300781 z m 0,0"
       id="path72" />
    <path
       style="fill:#ffffff;fill-opacity:1;fill-rule:nonzero;stroke:none"
       d="m 49.015625,15.210938 c 0,-7.34375 -4.316406,-13.300782 -9.644531,-13.300782 -5.324219,0 -9.640625,5.957032 -9.640625,13.300782 0,7.34375 4.316406,13.300781 9.640625,13.300781 5.328125,0 9.644531,-5.957031 9.644531,-13.300781 z m 0,0"
       id="path73" />
    <path
       style="fill:#ffffff;fill-opacity:1;fill-rule:nonzero;stroke:none"
       d="m 12.589844,13.128906 c 0,0.269532 -0.03125,0.507813 -0.08203,0.589844 -0.05078,0.08203 -0.101562,-0.0078 -0.132812,-0.226562 l 0.09766,-0.363282 z m 0,0"
       id="path74" />
    <path
       style="fill:#ffffff;fill-opacity:1;fill-rule:nonzero;stroke:none"
       d="m 29.644531,21.808594 c 0,0.02344 -0.101562,0.04687 -0.25,0.05469 -0.144531,0.0078 -0.308593,-0.0039 -0.398437,-0.02344 l 0.289062,-0.03125 z m 0,0"
       id="path75" />
    <path
       style="fill:#000000;fill-opacity:1;fill-rule:nonzero;stroke:none"
       d="m 20.480469,9.074219 c 0,-2.023438 -1.089844,-3.664063 -2.429688,-3.664063 -1.34375,0 -2.429687,1.640625 -2.429687,3.664063 0,2.023437 1.085937,3.660156 2.429687,3.660156 1.339844,0 2.429688,-1.636719 2.429688,-3.660156 z m 0,0"
       id="path76" />
    <path
       style="fill:#000000;fill-opacity:1;fill-rule:nonzero;stroke:none"
       d="m 47.175781,8.464844 c 0,-2.023438 -1.089843,-3.664063 -2.429687,-3.664063 -1.34375,0 -2.429688,1.640625 -2.429688,3.664063 0,2.023437 1.085938,3.664062 2.429688,3.664062 1.339844,0 2.429687,-1.640625 2.429687,-3.664062 z m 0,0"
       id="path77" />
    <path
       style="fill:#000000;fill-opacity:1;fill-rule:nonzero;stroke:none"
       d="m 42.15625,39.671875 h 7.648438 c 0.839843,0 1.515624,0.960937 1.515624,2.140625 v 9.128906 c 0,1.183594 -0.675781,2.144532 -1.515624,2.144532 H 42.15625 c -0.835938,0 -1.515625,-0.960938 -1.515625,-2.144532 V 41.8125 c 0,-1.179688 0.679687,-2.140625 1.515625,-2.140625 z m 0,0"
       id="path78" />
    <path
       style="fill:#ffffff;fill-opacity:1;fill-rule:nonzero;stroke:none"
       d="m 42.671875,40.476562 h 6.695313 c 0.835937,0 1.511718,0.960938 1.511718,2.140626 v 7.550781 c 0,1.183593 -0.675781,2.144531 -1.511718,2.144531 h -6.695313 c -0.835937,0 -1.515625,-0.960938 -1.515625,-2.144531 v -7.550781 c 0,-1.179688 0.679688,-2.140626 1.515625,-2.140626 z m 0,0"
       id="path79" />
    <path
       style="fill:#000000;fill-opacity:1;fill-rule:nonzero;stroke:none"
       d="M 10.148438,41.296875 9.617188,41.121094 9.09375,41.21875 8.746094,41.449219 8.5,41.789062 8.191406,42.375 8.132812,42.964844 v 0.703125 L 8.296875,44.457031 8.691406,44.945312 9.488281,46 13.375,49.074219 l 3.269531,1.96875 4.5,1.578125 1.835938,0.226562 2.109375,0.226563 2.273437,-0.05859 3.503907,-0.617187 3.109374,-1.183594 2.070313,-0.957032 2.410156,-1.679687 1.863281,-1.59375 0.105469,-0.222656 0.02734,-0.15625 0.02344,-0.132813 0.01172,-0.199218 -0.01172,-0.148438 -0.0039,-0.214844 -0.08203,-3.9375 0.0039,-0.02344 c 0,0 -0.03516,-0.01563 -0.04297,-0.01172 -0.0039,0.0078 -0.05469,0.01563 -0.07812,0.01563 -0.02344,0 -0.113282,-0.0039 -0.125,0.0039 -0.01172,0.0078 -0.1875,0.132813 -0.1875,0.132813 L 39.6875,42.375 l -1.339844,1.335938 -1.90625,1.53125 -2.542968,1.578124 -3.070313,1.40625 -3.546875,0.734376 -2.03125,0.05469 -2.351562,-0.28125 -2.75,-0.5625 -2.589844,-1.015625 -1.910156,-1.238281 -2.351563,-1.523438 -1.433594,-1.351562 -1.394531,-1.296875 z m 0,0"
       id="path80" />
    <path
       style="fill:#ffffff;fill-opacity:1;fill-rule:nonzero;stroke:none"
       d="m 12.339844,43.902344 -0.460938,-0.125 -0.453125,0.07031 -0.304687,0.164063 -0.210938,0.238281 -0.265625,0.414062 -0.05469,0.417969 v 0.496094 l 0.144531,0.554687 0.34375,0.347657 0.691406,0.746093 3.371094,2.171876 2.835937,1.394531 3.90625,1.113281 1.589844,0.160156 1.832032,0.160156 1.972656,-0.04297 3.042968,-0.4375 2.695313,-0.835938 1.796875,-0.675781 2.089844,-1.183594 1.613281,-1.128906 0.09375,-0.15625 0.02344,-0.109375 0.02344,-0.09766 0.0078,-0.140625 -0.0078,-0.105469 -0.0039,-0.148438 -0.07031,-2.785156 v -0.01563 c 0,0 -0.02734,-0.01172 -0.03516,-0.0078 -0.0039,0.0039 -0.05078,0.01172 -0.07031,0.01172 -0.01953,0 -0.09766,-0.0039 -0.105468,0.0039 -0.01172,0.0039 -0.164063,0.09375 -0.164063,0.09375 l -0.238281,0.199218 -1.160156,0.945313 -1.65625,1.078125 -2.207032,1.117188 -2.660156,0.996093 -3.078125,0.515625 -1.761719,0.04297 -2.042968,-0.199219 -2.382813,-0.398437 -2.246093,-0.71875 -1.660157,-0.875 -2.039062,-1.074219 -1.246094,-0.957031 -1.210937,-0.917969 z m 0,0"
       id="path81" />
    <path
       style="fill:#ffffff;fill-opacity:1;fill-rule:nonzero;stroke:none"
       d="m 38.359375,44.351562 1.746094,-1.914062 0.128906,4.105469 -0.15625,0.257812 -0.761719,0.578125 -0.914062,0.617188 z m 0,0"
       id="path82" />
    <path
       style="fill:#ffffff;fill-opacity:1;fill-rule:nonzero;stroke:none"
       d="M 11.675781,47.140625 10.617188,46.460938 9.921875,45.84375 9.523438,45.308594 8.925781,44.632812 8.566406,44.179688 8.488281,43.871094 v -0.394532 l -0.042969,-0.3125 V 42.773438 L 8.546875,42.40625 8.746094,42.125 9.003906,41.839844 c 0,0 0.199219,-0.195313 0.28125,-0.195313 0.078125,0 0.238282,-0.02734 0.335938,0.02734 0.101562,0.05859 0.199218,0.02734 0.320312,0.113281 0.121094,0.08594 0.378906,0.339844 0.378906,0.339844 0,0 0.21875,0.28125 0.316407,0.363281 0.101562,0.08594 0.199219,0.285157 0.300781,0.339844 0.101562,0.05469 0.359375,0.195313 0.4375,0.335937 0.08203,0.144532 0.417969,0.394532 0.519531,0.480469 0.09766,0.08594 0.316407,0.253907 0.316407,0.253907 l 0.28125,0.28125 0.179687,0.253906 c 0,0 -0.21875,0.703125 -0.300781,0.988281 -0.07813,0.28125 -0.695313,1.71875 -0.695313,1.71875 z m 0,0"
       id="path83" />
    <path
       style="fill:#ffffff;fill-opacity:1;fill-rule:nonzero;stroke:none"
       d="m 8.597656,44.222656 0.585938,0.945313 0.417968,0.421875 0.300782,0.265625 0.257812,0.128906 -0.05859,-1.664063 c 0,0 0,-1 -0.5,-0.941406 -0.496093,0.05469 -1.003906,0.84375 -1.003906,0.84375 z m 0,0"
       id="path84" />
    <path
       style="fill:#ffffff;fill-opacity:1;fill-rule:nonzero;stroke:none"
       d="m 10.382812,42.21875 c 0.02344,0.01953 0.96875,0.910156 0.96875,0.910156 l 1.03125,0.867188 -0.226562,0.261718 -2,-0.945312 z m 0,0"
       id="path85" />
  </g>
  <text
     xml:space="preserve"
     style="font-size:6.66667px;writing-mode:lr-tb;direction:ltr;fill:#000000"
     x="41.874851"
     y="48.459797"
     id="text85"><tspan
       id="tspan85"
       x="41.874851"
       y="48.459797"
       style="font-size:6.66667px">A I</tspan></text>
</svg>
