<?xml version="1.0" encoding="UTF-8" standalone="no"?>
<svg
   version="1.1"
   width="594"
   height="420"
   id="svg67"
   xmlns="http://www.w3.org/2000/svg"
   xmlns:svg="http://www.w3.org/2000/svg">
  <defs
     id="defs67" />
  <path
     d="m 179,12 c 0.9784,0.429258 1.9568,0.858516 2.96484,1.300781 C 197.47151,20.534511 211.2062,31.790446 222,45 c 0.56203,0.662578 1.12406,1.325156 1.70312,2.007812 16.87349,20.59782 23.5143,44.743371 23.42188,70.992188 0.004,1.09828 0.008,2.19656 0.0117,3.32813 C 247.10075,151.68788 235.20746,178.27019 214,200 c -9.33482,9 -9.33482,9 -12,9 -0.33,0.99 -0.66,1.98 -1,3 -0.99,0 -1.98,0 -3,0 0,0.66 0,1.32 0,2 -3.65215,2.02737 -7.32348,4.01721 -11,6 -0.92555,0.51434 -1.85109,1.02867 -2.80469,1.55859 C 175.80308,226.03367 167.17834,228.68518 158,231 c -0.96035,0.24879 -1.9207,0.49758 -2.91016,0.75391 C 139.23791,235.09238 121.61908,233.93458 106,230 c -1.15113,-0.26684 -2.30227,-0.53367 -3.48828,-0.80859 C 77.88233,222.91552 57.3168,208.0782 42,188 c -0.60586,-0.77859 -1.21172,-1.55719 -1.83594,-2.35938 -8.63031,-11.63725 -14.08076,-24.5913 -17.62869,-38.56369 -0.50056,-1.9419 -1.03764,-3.8743 -1.57736,-5.80569 -1.04809,-4.21746 -1.28046,-8.21666 -1.29395,-12.54858 -0.01,-1.15443 -0.01,-1.15443 -0.0202,-2.33217 -0.0101,-1.62274 -0.0148,-3.24551 -0.0145,-4.86827 -0.004,-2.42286 -0.0406,-4.84383 -0.0786,-7.26636 C 19.40299,93.876583 24.95312,75.215507 36,58 36.69579,56.775508 37.38409,55.546709 38.0625,54.3125 40.19485,50.666864 42.41131,47.338045 45,44 c 0.66,0 1.32,0 2,0 0.26949,-0.593291 0.53899,-1.186582 0.81665,-1.797852 1.91376,-3.561402 4.77342,-6.120282 7.62085,-8.952148 0.58588,-0.601992 1.17176,-1.203984 1.77539,-1.824219 0.56783,-0.568476 1.13566,-1.136953 1.7207,-1.722656 0.51619,-0.51917 1.03238,-1.03834 1.56421,-1.573242 C 62,27 62,27 65,27 65,26.34 65,25.68 65,25 96.211686,0.030651 143.03134,-4.331977 179,12 Z M 68,52 c 0,0.66 0,1.32 0,2 -0.99,0.33 -1.98,0.66 -3,1 -16.38742,19.507197 -25.99825,44.035333 -24.23633,69.68359 2.11797,20.75957 10.83123,45.31236 27.36133,59.06641 1.42312,1.11375 1.42312,1.11375 2.875,2.25 0.7425,0.78375 1.485,1.5675 2.25,2.375 8.09665,7.72862 17.608849,12.23316 27.75,16.625 0.76441,0.3416 1.52883,0.6832 2.31641,1.03516 19.66408,8.16942 46.03994,5.51483 65.40625,-2.07813 13.81003,-5.80353 27.21192,-14.91868 35.9375,-27.20703 C 206,175 206,175 208,174 c 1.91057,-2.85105 3.40612,-5.96404 5,-9 0.31308,-0.57234 0.62616,-1.14469 0.94873,-1.73438 C 225.58696,141.96896 229.69349,116.96721 223,93.125 222.12417,90.35784 221.11502,87.679092 220,85 219.71592,84.313091 219.43185,83.626182 219.13916,82.918457 210.17614,62.004754 194.74255,46.10114 175,35 174.37867,34.630039 173.75734,34.260078 173.11719,33.878906 140.7265,15.860712 92.774529,24.973241 68,52 Z"
     fill="#0d0d0d"
     id="path1" />
  <path
     d="M 493.59375,26.808594 C 494.05781,27.201758 494.52188,27.594922 495,28 c 0,0.66 0,1.32 0,2 0.58266,0.257813 1.16531,0.515625 1.76562,0.78125 2.41467,1.31709 4.05178,2.769634 5.98438,4.71875 0.61359,0.608438 1.22719,1.216875 1.85937,1.84375 C 506,39 506,39 506,41 c 0.99,0.33 1.98,0.66 3,1 1.6907,2.072001 3.23216,4.119579 4.75,6.3125 0.66371,0.951691 0.66371,0.951691 1.34082,1.922608 18.28553,26.51004 25.30038,58.087182 19.78125,90.061762 C 532.25738,153.20078 527.99954,165.79252 521,177 c -0.51176,0.86882 -1.02352,1.73765 -1.55078,2.63281 C 514.09964,188.46269 507.38288,195.83426 500,203 c -0.55688,0.59812 -1.11375,1.19625 -1.6875,1.8125 C 497,206 497,206 495,206 c 0,0.66 0,1.32 0,2 -2.13275,1.64859 -4.2506,3.14933 -6.5,4.625 -0.67563,0.44368 -1.35126,0.88735 -2.04736,1.34448 C 474.01967,221.97275 461.39462,227.5788 447,231 c -1.54301,0.36931 -1.54301,0.36931 -3.11719,0.74609 C 426.07492,235.17068 407.41076,233.62245 390,229 c -1.21792,-0.31856 -1.21792,-0.31856 -2.46045,-0.64356 -6.0306,-1.68236 -11.40707,-4.02125 -16.91455,-6.98144 -0.81928,-0.43514 -1.63856,-0.87028 -2.48267,-1.31861 C 361.23379,216.30076 355.10321,211.96584 349,207 c -1.14662,-0.80631 -1.14662,-0.80631 -2.31641,-1.62891 C 345.85021,204.6924 345.85021,204.6924 345,204 c 0,-0.66 0,-1.32 0,-2 -1.32,-0.66 -2.64,-1.32 -4,-2 0,-0.66 0,-1.32 0,-2 -0.99,-0.33 -1.98,-0.66 -3,-1 -1.48633,-1.57886 -1.48633,-1.57886 -3.03125,-3.60547 -0.84498,-1.10505 -0.84498,-1.10505 -1.70703,-2.23242 -0.58137,-0.77538 -1.16274,-1.55075 -1.76172,-2.34961 -0.58137,-0.75604 -1.16273,-1.51207 -1.76172,-2.29102 C 326.68556,182.49426 324.12431,178.60934 322,174 c -0.78599,-1.31591 -1.57736,-2.62863 -2.375,-3.9375 C 316.08688,163.75588 314.09435,156.88363 312,150 c -0.22687,-0.7193 -0.45375,-1.4386 -0.6875,-2.17969 C 304.94355,125.42949 307.00293,99.652705 315,78 c 0.34676,-0.966797 0.69352,-1.933594 1.05078,-2.929687 C 321.70602,60.417226 330.46189,48.486067 341,37 c 0.60328,-0.685781 1.20656,-1.371562 1.82813,-2.078125 C 348.34603,28.958083 355.28923,24.50583 362,20 c 0.94746,-0.643242 1.89492,-1.286484 2.87109,-1.949218 41.42612,-26.148398 90.07888,-16.548096 128.72266,8.757812 z M 353.40625,55.855469 C 349.56557,59.950794 349.56557,59.950794 348,65 c -0.66,0 -1.32,0 -2,0 -1.27571,2.184776 -2.54561,4.372616 -3.8125,6.5625 -0.35643,0.609082 -0.71285,1.218164 -1.08008,1.845703 C 328.60435,95.08784 328.13155,120.16292 333.125,144.125 336.45492,156.18968 343.14874,167.36572 351,177 c 1.0132,1.25877 1.0132,1.25877 2.04688,2.54296 C 360.21903,187.98465 368.92289,195.3027 379,200 c 0.89461,0.42281 1.78922,0.84562 2.71094,1.28125 2.75436,1.26006 5.51713,2.49783 8.28906,3.71875 0.68191,0.30293 1.36383,0.60586 2.06641,0.91796 20.03851,8.24132 46.01991,5.70312 65.68359,-2.16796 6.87877,-2.89107 13.17692,-6.39205 19.25,-10.75 0.75668,-0.52079 1.51336,-1.04157 2.29297,-1.57813 0.56332,-0.46922 1.12664,-0.93844 1.70703,-1.42187 0,-0.66 0,-1.32 0,-2 0.53625,-0.22688 1.0725,-0.45375 1.625,-0.6875 7.45875,-4.12194 11.67669,-10.37375 16.375,-17.3125 0.52723,-0.76055 1.05445,-1.5211 1.59766,-2.30469 14.16958,-21.84006 16.73687,-47.39351 11.4414,-72.449216 -0.75172,-3.248289 -1.67729,-6.292509 -2.97656,-9.371094 -0.3184,-0.765703 -0.6368,-1.531406 -0.96484,-2.320312 C 507.73543,82.711641 507.3732,81.868594 507,81 506.56172,79.899141 506.12344,78.798282 505.67187,77.664063 503.94386,73.64343 501.64582,70.108242 499.1875,66.5 498.73883,65.83855 498.29015,65.1771 497.82788,64.495606 485.62401,46.684792 465.97585,32.021747 444.54639,27.479981 442.03552,27.04612 439.52314,26.667681 437,26.3125 c -1.25684,-0.194326 -1.25684,-0.194326 -2.53906,-0.392578 -30.40654,-4.448015 -60.50639,7.313849 -81.05469,29.935547 z"
     fill="#0c0c0d"
     id="path2" />
  <path
     d="m 108.05859,314.84375 c 5.48239,2.89267 10.3811,6.59283 15.34375,10.28516 3.09198,2.22715 6.23878,4.07969 9.59766,5.87109 0,0.66 0,1.32 0,2 0.88687,0.26812 1.77375,0.53625 2.6875,0.8125 3.12055,1.11869 5.49905,2.46436 8.3125,4.1875 12.97209,7.16699 26.07947,13.88455 40,19 0.76892,0.28682 1.53785,0.57363 2.33007,0.86914 20.53448,7.5584 41.86545,12.34783 63.66993,14.13086 0.72896,0.084 1.45793,0.1679 2.20898,0.25439 C 288.17956,376.36469 327.17909,371.77301 361,359 c 0.62286,-0.23139 1.24571,-0.46277 1.88745,-0.70117 C 376.8015,353.12308 390.02465,347.23059 403,340 c 1.10472,-0.60973 2.20945,-1.21945 3.34765,-1.84766 7.70061,-4.36202 14.74034,-9.43466 21.78906,-14.76953 C 432.69491,320 432.69491,320 436,320 c 0.19844,5.01686 0.34323,10.03141 0.43945,15.05127 0.0401,1.70548 0.0946,3.41069 0.16406,5.11523 0.56041,14.11729 0.56041,14.11729 -2.198,18.18457 -2.07134,1.57734 -4.02126,2.6171 -6.40551,3.64893 -1.08926,0.69867 -2.17852,1.39734 -3.30079,2.11719 -0.99386,0.58008 -1.98773,1.16015 -3.01171,1.75781 -1.00676,0.59555 -2.01352,1.19109 -3.05079,1.80469 C 416,369 416,369 413,369 c 0,0.66 0,1.32 0,2 -2.60372,1.23013 -5.20797,2.45911 -7.8125,3.6875 -0.71866,0.33967 -1.43731,0.67934 -2.17774,1.0293 -2.33394,1.10013 -4.67159,2.1921 -7.00976,3.2832 -0.85304,0.40275 -1.70608,0.8055 -2.58496,1.22046 -6.88796,3.2042 -13.88779,5.91328 -21.04004,8.46704 -1.06735,0.38994 -2.13469,0.77988 -3.23438,1.18164 -5.34941,1.92224 -10.59621,3.59421 -16.16894,4.72095 -2.89113,0.60106 -5.70004,1.45957 -8.53418,2.28491 -6.79818,1.88405 -13.67114,3.14679 -20.625,4.3125 -0.98493,0.16677 -1.96985,0.33355 -2.98462,0.50537 -13.61762,2.20557 -27.05851,2.49351 -40.82495,2.49243 -3.10008,0.002 -6.1998,0.0204 -9.29981,0.0393 C 258.65392,404.25878 246.93353,403.67107 235,402 c -1.39678,-0.18864 -1.39678,-0.18864 -2.82178,-0.3811 -2.1078,-0.30083 -4.2049,-0.63344 -6.30322,-0.9939 -0.73171,-0.12375 -1.46341,-0.2475 -2.21729,-0.375 -6.41646,-1.12768 -12.71251,-2.63052 -19.00928,-4.29297 -2.19509,-0.5758 -4.3969,-1.12785 -6.60937,-1.63281 C 177.16258,389.5583 156.92018,380.87374 138,371 c -1.13567,-0.5891 -2.27133,-1.1782 -3.44141,-1.78516 C 102.03172,352.03157 102.03172,352.03157 90.999996,340 c 0,-0.66 0,-1.32 0,-2 -0.66,0 -1.32,0 -2,0 -2.107533,-4.21507 -1.515115,-9.4225 -1,-14 1.69782,-4.20064 4.161202,-6.43472 7.875,-8.9375 4.389754,-1.49252 7.779384,-2.02389 12.183594,-0.21875 z"
     fill="#090909"
     id="path3" />
  <path
     d="m 465.30859,303.59595 c 1.18217,-0.0103 1.18217,-0.0103 2.38821,-0.0208 2.58042,-0.0182 5.16023,-0.0144 7.7407,-0.009 1.80786,-0.005 3.61572,-0.01 5.42358,-0.0159 3.77912,-0.009 7.55804,-0.007 11.33716,0.003 4.82854,0.0115 9.65634,-0.009 14.48478,-0.0379 3.73023,-0.0184 7.46028,-0.0181 11.19054,-0.0124 1.7797,1.5e-4 3.5594,-0.006 5.33905,-0.0183 2.49339,-0.015 4.98544,-0.004 7.47879,0.0129 1.08815,-0.0145 1.08815,-0.0145 2.19827,-0.0293 5.59186,0.0798 9.25125,1.78278 14.11033,4.531 0,0.66 0,1.32 0,2 0.99,0.33 1.98,0.66 3,1 4.07577,7.5127 3.45495,15.71316 3.43359,24.03125 0.005,1.56124 0.01,3.12248 0.0159,4.68372 0.009,3.26127 0.006,6.5223 -0.003,9.78357 -0.0115,4.1627 0.009,8.32456 0.0379,12.48716 0.0184,3.22068 0.0181,6.44115 0.0124,9.66187 -1.5e-4,1.53408 0.006,3.06817 0.0183,4.6022 0.11742,16.82562 0.11742,16.82562 -5.9619,23.28893 -5.18852,4.6742 -9.74249,4.61065 -16.43895,4.60657 -0.79074,0.003 -1.58147,0.007 -2.39617,0.0102 -2.61161,0.01 -5.22316,0.0115 -7.83478,0.0125 -1.81837,0.003 -3.63674,0.007 -5.45511,0.0101 -3.81136,0.006 -7.62269,0.008 -11.43405,0.007 -4.87796,-1.1e-4 -9.75578,0.0135 -14.6337,0.0308 -3.75585,0.0111 -7.51166,0.0131 -11.26752,0.0126 -1.79809,0.001 -3.59618,0.006 -5.39425,0.0133 -2.51783,0.01 -5.03534,0.007 -7.55317,8.9e-4 -1.10835,0.008 -1.10835,0.008 -2.2391,0.017 -5.84157,-0.0354 -10.15937,-0.71649 -14.59342,-4.63495 -4.93863,-5.60601 -6.42978,-8.8761 -6.4895,-16.448 -0.007,-0.68984 -0.0131,-1.37969 -0.0199,-2.09043 -0.0197,-2.28277 -0.0314,-4.56546 -0.0414,-6.84829 -0.004,-0.7816 -0.008,-1.56321 -0.0123,-2.36851 -0.0208,-4.13945 -0.0352,-8.27886 -0.0445,-12.41835 -0.011,-4.26254 -0.0454,-8.52455 -0.0852,-12.7869 -0.0262,-3.28841 -0.0345,-6.5767 -0.0381,-9.86521 -0.005,-1.57039 -0.0164,-3.14077 -0.035,-4.71106 -0.18702,-16.82731 -0.18702,-16.82731 5.85925,-23.68162 4.96626,-4.38101 11.56894,-4.84969 17.9028,-4.81039 z M 482,328 c -2.48566,4.52745 -4.34915,8.85977 -5.8125,13.81641 -1.51429,5.02111 -3.09848,10.00871 -4.76563,14.98047 -0.32795,0.97892 -0.32795,0.97892 -0.66254,1.97761 -0.66858,1.99225 -1.3387,3.98396 -2.00933,5.97551 -0.90276,2.68172 -1.80353,5.3641 -2.70313,8.04688 -0.39349,1.16885 -0.78697,2.33771 -1.19238,3.54199 -0.90545,2.35399 -0.90545,2.35399 -0.85449,3.66113 3.3,0 6.6,0 10,0 0.99,-3.3 1.98,-6.6 3,-10 5.61,0 11.22,0 17,0 1.65,3.3 3.3,6.6 5,10 2.97,0 5.94,0 9,0 -0.68416,-4.02975 -1.894,-7.67047 -3.3125,-11.5 -1.64715,-4.50753 -3.18976,-9.02541 -4.5625,-13.625 -2.72484,-9.06402 -5.95991,-17.95761 -9.125,-26.875 -2.97,0 -5.94,0 -9,0 z m 34,0 c 0,17.16 0,34.32 0,52 2.97,0 5.94,0 9,0 0,-17.16 0,-34.32 0,-52 -2.97,0 -5.94,0 -9,0 z"
     fill="#070707"
     id="path4" />
  <path
     d="M 198.8125,66.246094 C 201,68 201,68 202,71 c 0.99,0.33 1.98,0.66 3,1 7.39292,9.529937 10.11101,20.102915 9,32 -1.73514,10.56989 -6.4106,19.6754 -14.78906,26.46484 -11.19352,7.77218 -21.69702,8.01086 -34.96094,7.34766 -9.75738,-2.43935 -18.50158,-9.40991 -24.17969,-17.59375 C 137.18817,115.19914 135.20201,110.85816 135,105 c -0.0374,-0.99 -0.0748,-1.98 -0.11328,-3 -0.29369,-13.355132 2.67984,-21.237946 10.30078,-32.125 0.59812,-0.61875 1.19625,-1.2375 1.8125,-1.875 0.99,0 1.98,0 3,0 0.33,-0.99 0.66,-1.98 1,-3 14.19029,-10.172125 34.02819,-7.617981 47.8125,1.246094 z M 173,96 c 0,1.32 0,2.64 0,4 1.32,-0.33 2.64,-0.66 4,-1 -0.33,-0.99 -0.66,-1.98 -1,-3 -0.99,0 -1.98,0 -3,0 z"
     fill="#080808"
     id="path5" />
  <path
     d="m 487.57422,66 c 6.84182,5.640918 13.63176,14.416729 14.72192,23.455322 0.14274,2.792529 0.16233,5.561245 0.14136,8.357178 0.02,0.933926 0.04,1.867852 0.0605,2.83008 -0.008,11.30707 -4.02584,18.80782 -11.7793,26.86914 -9.33918,8.5475 -18.21352,10.90447 -30.60547,10.67578 C 450.14273,137.58701 440.12563,133.10668 433,126 c 0,-0.99 0,-1.98 0,-3 -0.99,-0.33 -1.98,-0.66 -3,-1 -5.7307,-8.57055 -8.16385,-18.78718 -7,-29 1.74009,-8.206109 4.31037,-14.805536 10,-21 0.54785,-0.626484 1.0957,-1.252969 1.66016,-1.898438 C 448.19423,55.488459 471.43179,55.701796 487.57422,66 Z M 461,96 c 0.33,1.32 0.66,2.64 1,4 0.99,-0.33 1.98,-0.66 3,-1 -0.33,-0.99 -0.66,-1.98 -1,-3 -0.99,0 -1.98,0 -3,0 z"
     fill="#060606"
     id="path6" />
  <path
     d="m 485,342 c 0.99,0.33 1.98,0.66 3,1 1.16797,2.73047 1.16797,2.73047 2.1875,6.1875 0.34418,1.12793 0.68836,2.25586 1.04297,3.41797 0.74006,3.26452 0.91616,6.0624 0.76953,9.39453 -3.63,0 -7.26,0 -11,0 -1.13105,-4.52419 -0.36825,-7.36082 0.875,-11.6875 0.18691,-0.689 0.37383,-1.37801 0.56641,-2.08789 C 483.84796,343.15204 483.84796,343.15204 485,342 Z"
     fill="#373737"
     id="path7" />
  <path
     d="m 550,314 c 3.53542,3.53542 3.13491,7.02305 3.16113,11.79468 0.005,0.68651 0.01,1.37303 0.0151,2.08035 0.0146,2.26953 0.0214,4.53899 0.0269,6.80856 0.006,1.57797 0.0115,3.15594 0.0173,4.73391 0.0105,3.30785 0.0163,6.61569 0.0198,9.92356 0.005,4.23818 0.0295,8.47603 0.058,12.7141 0.0186,3.25908 0.0238,6.51809 0.0254,9.77722 0.003,1.56252 0.0111,3.12503 0.0242,4.68748 0.0171,2.18561 0.0152,4.37042 0.009,6.55607 0.004,1.24337 0.007,2.48675 0.011,3.76781 C 553,390 553,390 550,394 c 0,-26.4 0,-52.8 0,-80 z"
     fill="#5d5d5d"
     id="path8" />
  <path
     d="m 465.06323,303.74121 c 1.19597,-0.005 1.19597,-0.005 2.41609,-0.0106 2.62547,-0.009 5.25067,-0.003 7.87615,0.004 1.82652,-10e-4 3.65304,-0.003 5.47956,-0.006 3.8222,-0.003 7.6443,10e-4 11.46648,0.0107 4.90637,0.0114 9.81251,0.005 14.71887,-0.007 3.76856,-0.007 7.53707,-0.005 11.30563,2.6e-4 1.80976,10e-4 3.61953,-3.1e-4 5.42929,-0.005 2.52334,-0.005 5.04633,0.003 7.56965,0.0138 0.75171,-0.004 1.50343,-0.008 2.27792,-0.0123 5.16859,0.0425 5.16859,0.0425 7.39713,2.27106 -0.84027,-0.008 -0.84027,-0.008 -1.69751,-0.0159 -17.19598,-0.13299 -34.38497,0.096 -51.57834,0.38919 -2.52791,0.0429 -5.05584,0.0841 -7.5838,0.12372 -3.60028,0.0572 -7.20038,0.12093 -10.80051,0.18655 -1.64833,0.0251 -1.64833,0.0251 -3.32995,0.0507 -1.51709,0.0299 -1.51709,0.0299 -3.06482,0.0604 -1.32893,0.0233 -1.32893,0.0233 -2.68471,0.0471 -2.42785,0.0756 -2.42785,0.0756 -5.26036,1.15822 -0.99,-0.66 -1.98,-1.32 -3,-2 4.33904,-2.13866 8.32232,-2.28453 13.06323,-2.25879 z"
     fill="#565559"
     id="path9" />
  <path
     d="m 443,315 c 0.99,1.32 1.98,2.64 3,4 -0.99,0.33 -1.98,0.66 -3,1 0.0845,8.64951 0.17935,17.29883 0.28753,25.94808 0.0499,4.01638 0.0962,8.03273 0.13434,12.04923 0.0369,3.87751 0.0833,7.75479 0.13619,11.63211 0.0185,1.47789 0.0336,2.95584 0.0453,4.4338 0.0169,2.07315 0.046,4.1458 0.0778,6.21876 0.0133,1.17915 0.0267,2.35829 0.0404,3.57317 0.27606,3.11763 1.053,5.29501 2.27847,8.14485 -0.375,2.3125 -0.375,2.3125 -1,4 -2.67632,-4.61347 -3.37185,-7.93152 -3.35645,-13.24292 -0.002,-0.69831 -0.004,-1.39663 -0.006,-2.1161 -0.003,-2.29076 0.0154,-4.58078 0.0345,-6.87145 0.003,-1.59849 0.005,-3.19699 0.006,-4.79549 0.005,-3.3413 0.019,-6.68237 0.0412,-10.0236 0.0283,-4.28404 0.0392,-8.56789 0.0437,-12.85202 0.004,-3.29679 0.014,-6.59354 0.0259,-9.89032 0.006,-1.58006 0.0104,-3.16013 0.0143,-4.7402 0.007,-2.20445 0.0205,-4.40876 0.0363,-6.61316 0.007,-1.25432 0.0137,-2.50863 0.0207,-3.80095 C 442,318 442,318 443,315 Z"
     fill="#686869"
     id="path10" />
  <path
     d="m 513,100 c 0.33,0 0.66,0 1,0 0.70351,2.68419 1.38796,5.37102 2.0625,8.0625 0.19916,0.75217 0.39832,1.50434 0.60352,2.2793 1.40758,5.70441 1.34344,10.26274 -0.35352,15.9707 -0.10312,0.55688 -0.20625,1.11375 -0.3125,1.6875 0.66,0.66 1.32,1.32 2,2 -2.5,2.5 -2.5,2.5 -5,5 0.0838,-1.18594 0.16758,-2.37188 0.25391,-3.59375 C 513.94124,120.81028 513.94868,110.58144 513,100 Z"
     fill="#3a3a3d"
     id="path11" />
  <path
     d="m 435,3 c 0,0.33 0,0.66 0,1 -0.59426,0.019819 -1.18852,0.039639 -1.80078,0.060059 C 430.46576,4.1562399 427.73296,4.2655356 425,4.375 c -1.40186,0.046406 -1.40186,0.046406 -2.83203,0.09375 -4.28266,0.1796918 -8.30108,0.4419444 -12.44922,1.5625 C 406.12194,6.9682346 403.19718,7.2090269 399.5,7.125 398.45844,7.1069531 397.41687,7.0889062 396.34375,7.0703125 395.57031,7.0471094 394.79687,7.0239062 394,7 c 0,-0.33 0,-0.66 0,-1 13.66577,-3.4215333 26.98372,-3.3269347 41,-3 z"
     fill="#949494"
     id="path12" />
  <path
     d="m 20,100 c 0.33,0 0.66,0 1,0 0,11.55 0,23.1 0,35 0.66,0 1.32,0 2,0 0,3.3 0,6.6 0,10 -2.864251,-5.7285 -3.13919,-10.13776 -3.097656,-16.48438 0.0014,-0.81559 0.0028,-1.63118 0.0043,-2.47149 0.0056,-2.59808 0.01814,-5.19608 0.03087,-7.79413 0.005,-1.76432 0.0096,-3.52864 0.01367,-5.29297 C 19.962182,108.63799 19.979436,104.31901 20,100 Z"
     fill="#4a4a4a"
     id="path13" />
  <path
     d="m 424,88 c 0.33,0 0.66,0 1,0 0.0219,0.869513 0.0219,0.869513 0.0442,1.756592 0.0748,2.644283 0.17135,5.287348 0.26831,7.930908 0.0226,0.912012 0.0451,1.824023 0.0684,2.76367 0.20296,5.07399 0.58537,8.3142 3.61914,12.54883 0.6875,3.8125 0.6875,3.8125 1,7 -5.37604,-5.19066 -6.66073,-12.61366 -7.21875,-19.82812 C 422.73137,96.00722 422.9209,92.046643 424,88 Z"
     fill="#9b9b9c"
     id="path14" />
  <path
     d="m 151,65 c 0.66,0.33 1.32,0.66 2,1 -2.37894,3.466451 -4.54986,6.560839 -7.5625,9.5 -2.88875,2.962822 -4.5069,5.853304 -6.4375,9.5 -0.66,0 -1.32,0 -2,0 2.26102,-6.217811 5.45274,-12.159369 10,-17 0.99,0 1.98,0 3,0 0.33,-0.99 0.66,-1.98 1,-3 z"
     fill="#4f4f51"
     id="path15" />
  <path
     d="m 501,165 c 0.33,1.32 0.66,2.64 1,4 -0.66,0 -1.32,0 -2,0 0.10312,0.9075 0.20625,1.815 0.3125,2.75 C 500,175 500,175 497.75,177.125 c -1.36125,0.92812 -1.36125,0.92812 -2.75,1.875 -1.35147,1.31494 -2.69113,2.64265 -4,4 -0.99,-0.33 -1.98,-0.66 -3,-1 0.99,-0.33 1.98,-0.66 3,-1 1.02707,-1.80261 1.02707,-1.80261 2,-4 1.16335,-1.72487 2.35251,-3.43252 3.5625,-5.125 2.40482,-3.32592 2.40482,-3.32592 4.4375,-6.875 z"
     fill="#535355"
     id="path16" />
  <path
     d="m 486.625,368.9375 c 1.05961,0.007 1.05961,0.007 2.14062,0.0137 1.74483,0.0118 3.48962,0.0297 5.23438,0.0488 0.66,1.65 1.32,3.3 2,5 -0.66,0 -1.32,0 -2,0 -0.66,-0.66 -1.32,-1.32 -2,-2 -2.58064,-0.14498 -5.04944,-0.18678 -7.625,-0.125 -0.70641,0.009 -1.41281,0.0181 -2.14063,0.0273 -1.74493,0.0236 -3.48969,0.0595 -5.23437,0.0977 0,-0.66 0,-1.32 0,-2 3.06533,-1.53267 6.26754,-1.10276 9.625,-1.0625 z"
     fill="#696969"
     id="path17" />
  <path
     d="m 62,27 c 0.66,0.33 1.32,0.66 2,1 -1.925761,2.439297 -3.800906,4.800906 -6,7 -1.04939,1.201633 -2.09047,2.410551 -3.125,3.625 -0.538828,0.631641 -1.077656,1.263281 -1.632813,1.914063 C 52.832266,41.021172 52.422344,41.503281 52,42 50.68,41.67 49.36,41.34 48,41 52.62,36.38 57.24,31.76 62,27 Z"
     fill="#3f3f3f"
     id="path18" />
  <path
     d="m 393,8 c -0.5543,0.2539453 -1.10859,0.5078906 -1.67969,0.7695313 -0.72445,0.3441796 -1.4489,0.6883593 -2.19531,1.0429687 -0.7193,0.336445 -1.43859,0.672891 -2.17969,1.019531 C 384.69457,11.994671 384.69457,11.994671 383,15 c -2.97,-0.33 -5.94,-0.66 -9,-1 3.10421,-2.069471 6.03187,-3.324461 9.5,-4.6875 1.14469,-0.4576172 2.28937,-0.9152344 3.46875,-1.3867188 C 390,7 390,7 393,8 Z"
     fill="#585859"
     id="path19" />
  <path
     d="m 460.53906,304.90234 c 1.30195,0.003 2.60391,0.006 3.94531,0.01 1.38021,0.008 2.76042,0.0168 4.14063,0.0254 1.38802,0.005 2.77604,0.01 4.16406,0.0137 3.40369,0.0118 6.80729,0.0283 10.21094,0.0488 0,0.33 0,0.66 0,1 -0.74162,0.0251 -1.48323,0.0501 -2.24732,0.0759 -3.35524,0.11594 -6.71019,0.23868 -10.06518,0.36158 -1.16725,0.0393 -2.33449,0.0786 -3.53711,0.11914 -1.11826,0.0419 -2.23653,0.0838 -3.38867,0.12695 -1.54748,0.055 -1.54748,0.055 -3.12622,0.11108 -2.74299,0.10694 -2.74299,0.10694 -5.6355,1.20533 -0.99,-0.66 -1.98,-1.32 -3,-2 2.87018,-1.4351 5.33543,-1.11159 8.53906,-1.09766 z"
     fill="#252527"
     id="path20" />
  <path
     d="m 334,368 c -4.661,3.90024 -10.15197,5.17708 -16.20703,4.89844 C 316.18376,372.66902 314.58838,372.3453 313,372 c 0,-0.33 0,-0.66 0,-1 2.5615,-0.50568 5.12399,-1.0047 7.6875,-1.5 0.72123,-0.14309 1.44246,-0.28617 2.18555,-0.43359 C 326.63841,368.34428 330.14474,367.8175 334,368 Z"
     fill="#515154"
     id="path21" />
  <path
     d="m 427,324 c 0.66,0.33 1.32,0.66 2,1 -3.57851,4.77135 -6.68573,7.29076 -12,10 -0.66,-0.66 -1.32,-1.32 -2,-2 0.78246,-0.5659 1.56492,-1.1318 2.37109,-1.71484 1.01192,-0.73348 2.02383,-1.46696 3.06641,-2.22266 1.00934,-0.7309 2.01867,-1.4618 3.05859,-2.21484 C 425.82293,325.22678 425.82293,325.22678 427,324 Z"
     fill="#575758"
     id="path22" />
  <path
     d="m 90,33 c 1.98,0 3.96,0 6,0 -2.929031,2.333643 -5.885682,4.049608 -9.25,5.6875 -1.338047,0.655488 -1.338047,0.655488 -2.703125,1.324219 C 83.371406,40.337852 82.695937,40.663984 82,41 c -0.66,-0.66 -1.32,-1.32 -2,-2 0.66,-0.33 1.32,-0.66 2,-1 0.66,0.33 1.32,0.66 2,1 0.33,-1.32 0.66,-2.64 1,-4 1.32,0.33 2.64,0.66 4,1 0.33,-0.99 0.66,-1.98 1,-3 z"
     fill="#58585a"
     id="path23" />
  <path
     d="m 508,378 c 0.66,0.33 1.32,0.66 2,1 -0.33,1.32 -0.66,2.64 -1,4 -3.3,0 -6.6,0 -10,0 -0.33,-1.32 -0.66,-2.64 -1,-4 3.3,0.33 6.6,0.66 10,1 0,-0.66 0,-1.32 0,-2 z"
     fill="#505050"
     id="path24" />
  <path
     d="m 120,4 c -0.33,0.66 -0.66,1.32 -1,2 -5.8926,1.6515588 -11.90282,2.270986 -18,2 5.91402,-3.1844693 12.30489,-4.343339 19,-4 z"
     fill="#6e6e6f"
     id="path25" />
  <path
     d="m 411,335 c 0.66,0.33 1.32,0.66 2,1 -4.52627,4.86155 -8.34493,7.22616 -15,8 2.28858,-2.52482 4.62343,-4.03133 7.625,-5.625 2.87582,-1.4284 2.87582,-1.4284 5.375,-3.375 z"
     fill="#6f6f70"
     id="path26" />
  <path
     d="m 492,331 c 0.66,0 1.32,0 2,0 0.70366,1.55529 1.38729,3.11965 2.0625,4.6875 0.38285,0.87012 0.7657,1.74023 1.16016,2.63672 0.87092,2.99792 0.6274,4.70858 -0.22266,7.67578 -1.7495,-2.62425 -2.6539,-4.55727 -3.625,-7.5 -0.39059,-1.16016 -0.39059,-1.16016 -0.78906,-2.34375 C 492,334 492,334 492,331 Z"
     fill="#5b5a5a"
     id="path27" />
  <path
     d="m 476,194 c 0,0.66 0,1.32 0,2 -3.45584,2.57179 -6.84297,4.79665 -11,6 -2.14844,-0.45703 -2.14844,-0.45703 -4,-1 0.68707,-0.33773 1.37414,-0.67547 2.08203,-1.02344 0.90106,-0.44601 1.80211,-0.89203 2.73047,-1.35156 0.89332,-0.44086 1.78664,-0.88172 2.70703,-1.33594 C 474.84848,194 474.84848,194 476,194 Z"
     fill="#616164"
     id="path28" />
  <path
     d="m 442,25 c 0,0.66 0,1.32 0,2 1.65,0 3.3,0 5,0 0,0.33 0,0.66 0,1 -6.67728,-0.586603 -13.34063,-1.23581 -20,-2 0,-0.33 0,-0.66 0,-1 2.12437,-0.194485 4.24953,-0.380383 6.375,-0.5625 1.18336,-0.104414 2.36672,-0.208828 3.58594,-0.316406 C 440,24 440,24 442,25 Z"
     fill="#6d6d6d"
     id="path29" />
  <path
     d="m 401,25 c 5.61,0 11.22,0 17,0 0,0.33 0,0.66 0,1 -5.61,0.66 -11.22,1.32 -17,2 0,-0.99 0,-1.98 0,-3 z"
     fill="#6c6c72"
     id="path30" />
  <path
     d="m 501,356 c 4.03304,4.583 5.36552,9.96885 5,16 -5.49405,-10.56548 -5.49405,-10.56548 -5,-16 z"
     fill="#656363"
     id="path31" />
  <path
     d="m 108.4375,315 c 0.77344,0.495 0.77344,0.495 1.5625,1 -0.66,0.66 -1.32,1.32 -2,2 0,-0.66 0,-1.32 0,-2 -0.77086,0.0838 -1.54172,0.16758 -2.33594,0.25391 -1.50433,0.15275 -1.50433,0.15275 -3.03906,0.30859 -1.4966,0.15662 -1.4966,0.15662 -3.023438,0.31641 C 97,317 97,317 95,316 c 4.233811,-2.70964 8.80841,-2.89911 13.4375,-1 z"
     fill="#8a8a8d"
     id="path32" />
  <path
     d="m 310,138 c 0.66,0 1.32,0 2,0 1.41635,2.8327 1.3463,5.47466 1.5625,8.625 0.0838,1.18852 0.16758,2.37703 0.25391,3.60156 0.0606,0.91524 0.12117,1.83047 0.18359,2.77344 -1.74325,-2.61488 -2.41588,-4.00534 -3.125,-6.9375 -0.16758,-0.66902 -0.33516,-1.33805 -0.50781,-2.02734 C 310,142 310,142 310,138 Z"
     fill="#737373"
     id="path33" />
  <path
     d="m 498,32 c 2.31,1.98 4.62,3.96 7,6 -0.66,0.66 -1.32,1.32 -2,2 0,-0.66 0,-1.32 0,-2 -0.66,0 -1.32,0 -2,0 -0.33,0.66 -0.66,1.32 -1,2 -1.76463,-3.088097 -2,-4.233121 -2,-8 z"
     fill="#383839"
     id="path34" />
  <path
     d="m 143,73 c 1,3 1,3 0.004,5.261719 -0.47567,0.800508 -0.95133,1.601015 -1.44141,2.425781 -0.70963,1.212363 -0.70963,1.212363 -1.43359,2.449219 C 139.75637,83.751602 139.38383,84.366484 139,85 c -0.66,0 -1.32,0 -2,0 1.56642,-4.307648 3.68336,-8.061715 6,-12 z"
     fill="#5b5b5b"
     id="path35" />
  <path
     d="m 454,205 c -0.33,0.99 -0.66,1.98 -1,3 -4.40915,1.10229 -8.48382,1.07655 -13,1 0,-0.33 0,-0.66 0,-1 0.62648,-0.13277 1.25297,-0.26555 1.89844,-0.40234 0.81726,-0.17661 1.63453,-0.35321 2.47656,-0.53516 0.81211,-0.17402 1.62422,-0.34805 2.46094,-0.52734 C 453.0438,205 453.0438,205 454,205 Z"
     fill="#727173"
     id="path36" />
  <path
     d="m 514,120 c 0.33,0 0.66,0 1,0 0.19531,2.01823 0.39062,4.03646 0.58594,6.05469 0.27781,2.17199 0.27781,2.17199 2.41406,3.94531 -1.66667,1.66667 -3.33333,3.33333 -5,5 0.33,-4.95 0.66,-9.9 1,-15 z"
     fill="#5a5a5b"
     id="path37" />
  <path
     d="m 443,315 c 0.99,1.32 1.98,2.64 3,4 -0.99,0.33 -1.98,0.66 -3,1 0,3.63 0,7.26 0,11 -0.33,0 -0.66,0 -1,0 -0.027,-2.1041 -0.0464,-4.20829 -0.0625,-6.3125 -0.0116,-1.17176 -0.0232,-2.34352 -0.0352,-3.55078 C 442,318 442,318 443,315 Z"
     fill="#59595a"
     id="path38" />
  <path
     d="m 485,210 c 1.32,0.66 2.64,1.32 4,2 -4.95,2.97 -4.95,2.97 -10,6 0,-0.99 0,-1.98 0,-3 0.99,0 1.98,0 3,0 0,-0.66 0,-1.32 0,-2 0.99,0 1.98,0 3,0 0,-0.99 0,-1.98 0,-3 z"
     fill="#555557"
     id="path39" />
  <path
     d="m 210,169 c 0.8125,1.6875 0.8125,1.6875 1,4 -2.4375,2.75 -2.4375,2.75 -5,5 -0.66,-0.33 -1.32,-0.66 -2,-1 0.66,-0.99 1.32,-1.98 2,-3 0.66,0 1.32,0 2,0 0.14437,-0.63938 0.28875,-1.27875 0.4375,-1.9375 C 209,170 209,170 210,169 Z"
     fill="#626262"
     id="path40" />
  <path
     d="m 218,153 c 0.33,0 0.66,0 1,0 0.33,1.98 0.66,3.96 1,6 -0.66,0 -1.32,0 -2,0 -0.66,1.65 -1.32,3.3 -2,5 -0.66,0 -1.32,0 -2,0 1.21257,-3.72433 2.5086,-7.37803 4,-11 z"
     fill="#565657"
     id="path41" />
  <path
     d="m 20,131 c 0.33,1.32 0.66,2.64 1,4 0.66,0 1.32,0 2,0 0,3.3 0,6.6 0,10 -1.81249,-3.62498 -2.318889,-5.3726 -2.625,-9.25 -0.07477,-0.89203 -0.149531,-1.78406 -0.226563,-2.70313 C 20.099453,132.37141 20.050469,131.69594 20,131 Z"
     fill="#7d7d7d"
     id="path42" />
  <path
     d="m 26,79 c 0.66,0.99 1.32,1.98 2,3 -0.66,0 -1.32,0 -2,0 0.33,1.65 0.66,3.3 1,5 -0.99,0.33 -1.98,0.66 -3,1 -0.733238,2.015084 -0.733238,2.015084 -1,4 0.115097,-1.417506 0.242537,-2.834012 0.375,-4.25 0.06961,-0.788906 0.139219,-1.577812 0.210937,-2.390625 C 24.015071,82.914123 24.786006,81.151631 26,79 Z"
     fill="#636363"
     id="path43" />
  <path
     d="m 356,24 c 0.66,0.33 1.32,0.66 2,1 -2.23408,3.351118 -3.26216,4.81554 -7.25,5.8125 -1.36125,0.09281 -1.36125,0.09281 -2.75,0.1875 2.51622,-2.606083 5.05134,-4.893817 8,-7 z"
     fill="#4a4a4b"
     id="path44" />
  <path
     d="m 387,378 c 2.475,0.99 2.475,0.99 5,2 -3.20337,2.83375 -5.78087,3.52055 -10,4 0,-0.66 0,-1.32 0,-2 1.32,0 2.64,0 4,0 0.33,-1.32 0.66,-2.64 1,-4 z"
     fill="#5c5c5c"
     id="path45" />
  <path
     d="m 375,356 c -1.90401,1.90401 -3.33426,2.9352 -6.04688,3.19922 C 366.96767,359.18866 364.98301,359.09915 363,359 c 0,-0.33 0,-0.66 0,-1 0.94875,-0.30938 1.8975,-0.61875 2.875,-0.9375 5.9375,-2.01875 5.9375,-2.01875 9.125,-1.0625 z"
     fill="#626264"
     id="path46" />
  <path
     d="m 450.375,61.3125 c 0.53625,0.226875 1.0725,0.45375 1.625,0.6875 -5.75,3.875 -5.75,3.875 -8,5 0,-0.66 0,-1.32 0,-2 -0.66,-0.33 -1.32,-0.66 -2,-1 5.41538,-3.076923 5.41538,-3.076923 8.375,-2.6875 z"
     fill="#656566"
     id="path47" />
  <path
     d="m 347,31 c 0.33,0.66 0.66,1.32 1,2 -1.65,1.98 -3.3,3.96 -5,6 -0.99,-0.33 -1.98,-0.66 -3,-1 2.31,-2.31 4.62,-4.62 7,-7 z"
     fill="#5f5f5f"
     id="path48" />
  <path
     d="m 222,397 c 0,0.66 0,1.32 0,2 0.99,0.33 1.98,0.66 3,1 -8.57143,-0.85714 -8.57143,-0.85714 -12,-3 3.37817,-0.84454 5.67465,-1.10845 9,0 z"
     fill="#717172"
     id="path49" />
  <path
     d="m 41,127 c 0.33,0 0.66,0 1,0 0.365528,1.41378 0.716955,2.83121 1.0625,4.25 0.197227,0.78891 0.394453,1.57781 0.597656,2.39062 C 44.014973,136.10395 43.768775,137.65604 43,140 c -2.20914,-3.31371 -2.224816,-4.3446 -2.125,-8.1875 0.01805,-0.90105 0.03609,-1.80211 0.05469,-2.73047 C 40.95289,128.39496 40.97609,127.70789 41,127 Z"
     fill="#616161"
     id="path50" />
  <path
     d="m 31,66 c 0.965162,3.002728 1.223935,5.042158 0,8 -0.99,0.33 -1.98,0.66 -3,1 0.699416,-3.147372 1.760787,-6.025889 3,-9 z"
     fill="#5b5b5d"
     id="path51" />
  <path
     d="m 456,31 c 2.97,0.33 5.94,0.66 9,1 0.33,1.32 0.66,2.64 1,4 -1.482,-0.449091 -2.96055,-0.909566 -4.4375,-1.375 -0.82371,-0.255234 -1.64742,-0.510469 -2.49609,-0.773438 C 457,33 457,33 456,31 Z"
     fill="#6b6a6c"
     id="path52" />
  <path
     d="m 309,400 c 2.64,0.33 5.28,0.66 8,1 0,0.33 0,0.66 0,1 -3.3,0.33 -6.6,0.66 -10,1 0.66,-0.33 1.32,-0.66 2,-1 0,-0.66 0,-1.32 0,-2 z"
     fill="#616063"
     id="path53" />
  <path
     d="m 549,394 c 0.33,0.99 0.66,1.98 1,3 -1.65,1.32 -3.3,2.64 -5,4 0.3125,-2.375 0.3125,-2.375 1,-5 0.99,-0.66 1.98,-1.32 3,-2 z"
     fill="#5b5b5d"
     id="path54" />
  <path
     d="m 419,364 c 1.32,0.33 2.64,0.66 4,1 -6.75,4 -6.75,4 -9,4 0.33,-0.99 0.66,-1.98 1,-3 1.32,0 2.64,0 4,0 0,-0.66 0,-1.32 0,-2 z"
     fill="#757575"
     id="path55" />
  <path
     d="m 498,113 c 0.75,1.625 0.75,1.625 1,4 -1.9375,3.25 -1.9375,3.25 -4,6 -0.33,-1.32 -0.66,-2.64 -1,-4 0.99,-0.33 1.98,-0.66 3,-1 0.33,-1.65 0.66,-3.3 1,-5 z"
     fill="#656567"
     id="path56" />
  <path
     d="m 62,27 c 0.66,0.33 1.32,0.66 2,1 -2.656547,3.738843 -4.581104,5.649782 -9,7 0.978663,-1.146263 1.957946,-2.291998 2.9375,-3.4375 0.545273,-0.638086 1.090547,-1.276172 1.652344,-1.933594 C 60.367957,28.730088 61.159365,27.840635 62,27 Z"
     fill="#797979"
     id="path57" />
  <path
     d="m 122.625,24.4375 c 1.00289,0.101836 2.00578,0.203672 3.03906,0.308594 0.77086,0.08379 1.54172,0.167578 2.33594,0.253906 0,0.33 0,0.66 0,1 -6.435,0.495 -6.435,0.495 -13,1 0,-0.66 0,-1.32 0,-2 2.72842,-1.36421 4.60953,-0.878072 7.625,-0.5625 z"
     fill="#797979"
     id="path58" />
  <path
     d="m 118,229 c 0,0.66 0,1.32 0,2 0.99,0.33 1.98,0.66 3,1 -3.96,-0.33 -7.92,-0.66 -12,-1 0,-0.33 0,-0.66 0,-1 6.75,-1 6.75,-1 9,-1 z"
     fill="#767677"
     id="path59" />
  <path
     d="m 451,225 c 0.66,0 1.32,0 2,0 0,0.66 0,1.32 0,2 3.465,-0.495 3.465,-0.495 7,-1 -2.76223,2.76223 -5.20707,2.57856 -9,3 0,-1.32 0,-2.64 0,-4 z"
     fill="#5d5d5d"
     id="path60" />
  <path
     d="m 317,162 c 0.99,0.33 1.98,0.66 3,1 0.33,2.31 0.66,4.62 1,7 -4,-4.625 -4,-4.625 -4,-8 z"
     fill="#545455"
     id="path61" />
  <path
     d="m 426,111 c 1.485,0.99 1.485,0.99 3,2 0.6875,3.625 0.6875,3.625 1,7 -4,-4.5 -4,-4.5 -4,-9 z"
     fill="#636363"
     id="path62" />
  <path
     d="m 436,69 c 0,3.548239 -0.67734,4.419271 -3,7 -0.99,0.33 -1.98,0.66 -3,1 1.44254,-3.365919 3.33265,-5.510471 6,-8 z"
     fill="#585858"
     id="path63" />
  <path
     d="m 77,41 c 1.32,0.33 2.64,0.66 4,1 -2.97,2.475 -2.97,2.475 -6,5 -0.66,-0.99 -1.32,-1.98 -2,-3 1.32,0 2.64,0 4,0 0,-0.99 0,-1.98 0,-3 z"
     fill="#626265"
     id="path64" />
  <path
     d="m 181,35 c 1.32,1.65 2.64,3.3 4,5 -3.57576,0 -5.05296,-1.088406 -8,-3 1.32,-0.66 2.64,-1.32 4,-2 z"
     fill="#616162"
     id="path65" />
  <path
     d="m 171,31 c 1.98,0.99 3.96,1.98 6,3 0,0.66 0,1.32 0,2 -2.97,-0.99 -5.94,-1.98 -9,-3 0.99,-0.66 1.98,-1.32 3,-2 z"
     fill="#616162"
     id="path66" />
  <path
     d="m 151,25 c 0,0.66 0,1.32 0,2 -3.63,-0.33 -7.26,-0.66 -11,-1 0,-0.33 0,-0.66 0,-1 7.625,-1.125 7.625,-1.125 11,0 z"
     fill="#6c6c6f"
     id="path67" />
  <ellipse
     style="fill:#000000"
     id="path70"
     ry="118.77049"
     rx="119.63115"
     cy="117.90984"
     cx="135.12296" />
  <ellipse
     style="fill:#000000"
     id="path70-6"
     ry="118.77049"
     rx="119.63115"
     cy="117.18853"
     cx="425.27048" />
  <ellipse
     style="fill:#000000"
     id="path71"
     cx="139.85655"
     cy="233.2377"
     rx="0.43032786"
     ry="8.6065578" />
  <ellipse
     style="fill:#000000"
     id="path72"
     cx="159.65164"
     cy="107.15164"
     rx="0.43032786"
     ry="39.159836" />
  <ellipse
     style="fill:#ffffff"
     id="path73"
     ry="101.55738"
     rx="104.13935"
     cy="117.04921"
     cx="135.12294" />
  <ellipse
     style="fill:#ffffff"
     id="path73-5"
     ry="101.55738"
     rx="104.13935"
     cy="116.15573"
     cx="425.22131" />
  <path
     style="fill:#ffffff"
     id="path74"
     d="m 135.98361,100.2664 a 1.2909836,4.7336063 0 0 1 -0.894,4.50425 1.2909836,4.7336063 0 0 1 -1.44381,-1.73408 l 1.04683,-2.77017 z" />
  <path
     style="fill:#ffffff"
     id="path75"
     d="m 320.16394,166.53688 a 3.8729508,0.43032786 0 0 1 -2.682,0.40948 3.8729508,0.43032786 0 0 1 -4.33145,-0.15765 l 3.1405,-0.25183 z" />
  <ellipse
     style="fill:#000000"
     id="path76"
     cx="194.93851"
     cy="69.282784"
     rx="26.25"
     ry="27.971312" />
  <ellipse
     style="fill:#000000"
     id="path76-5"
     cx="483.25"
     cy="64.643448"
     rx="26.25"
     ry="27.971312" />
  <rect
     style="fill:#000000"
     id="rect76"
     width="115.3279"
     height="102.41802"
     x="438.93442"
     y="302.95081"
     ry="16.352459" />
  <rect
     style="fill:#ffffff"
     id="rect76-2"
     width="104.99998"
     height="90.368851"
     x="444.50818"
     y="309.09836"
     ry="16.352459" />
  <text
     xml:space="preserve"
     style="font-size:33.3333px;writing-mode:lr-tb;direction:ltr;white-space:pre;inline-size:46.2149;fill:#ffffff"
     x="479.38525"
     y="345.12296"
     id="text77"
     transform="matrix(2.13599,0,0,2.836545,-574.69925,-591.66171)"><tspan
       x="479.38525"
       y="345.12296"
       id="tspan2"><tspan
         style="font-weight:bold;fill:#000000"
         id="tspan1">A I </tspan></tspan></text>
  <path
     style="fill:#000000"
     d="m 109.61108,315.3503 -5.75564,-1.34477 -5.648054,0.75307 -3.765368,1.7751 -2.635759,2.58197 -3.335041,4.46465 -0.645491,4.51844 v 5.3791 l 1.790525,6.00114 4.260029,3.72753 8.596129,8.06362 41.99523,23.4654 35.28688,15.06147 48.62705,12.04918 19.79508,1.72131 22.80738,1.72131 24.52869,-0.43032 37.86885,-4.73361 33.56557,-9.03688 22.37705,-7.31558 26.03211,-12.79965 20.08299,-12.17151 1.14108,-1.71161 0.30429,-1.17912 0.26625,-1.02697 0.11411,-1.52144 -0.11411,-1.14108 -0.038,-1.63554 -0.88294,-30.07128 0.0135,-0.16137 c 0,0 -0.36309,-0.13447 -0.43033,-0.0941 -0.0672,0.0403 -0.61859,0.12103 -0.8741,0.12103 -0.25551,0 -1.2103,-0.0269 -1.34478,0.0269 -0.13447,0.0538 -2.01716,1.00858 -2.01716,1.00858 l -2.9585,2.16509 -14.44288,10.22029 -20.60195,11.67264 -27.48719,12.04918 -33.13525,10.7582 -38.29918,5.59426 -21.94672,0.43033 -25.38934,-2.15164 -29.69263,-4.30328 -27.97131,-7.7459 -20.65574,-9.46721 -25.38934,-11.61886 -15.4918,-10.32787 -15.06148,-9.89754 z"
     id="path77-7" />
  <path
     style="fill:#ffffff;stroke-width:0.783022"
     d="m 133.28774,335.25043 -4.99382,-0.95029 -4.90048,0.53217 -3.26698,1.25438 -2.2869,1.82457 -2.8936,3.15497 -0.56006,3.19299 v 3.80118 l 1.55353,4.24074 3.69618,2.63409 7.45834,5.69821 36.43674,16.58199 30.61632,10.64329 42.19078,8.51464 17.175,1.21638 19.7886,1.21637 21.28208,-0.30409 32.85653,-3.34503 29.12283,-6.38598 19.41524,-5.1696 22.5865,-9.04497 17.42481,-8.60107 0.99005,-1.20953 0.26401,-0.83323 0.231,-0.72572 0.099,-1.07513 -0.099,-0.80635 -0.0329,-1.15577 -0.76608,-21.25008 0.0117,-0.11403 c 0,0 -0.31503,-0.095 -0.37337,-0.0665 -0.0583,0.0285 -0.53672,0.0855 -0.75841,0.0855 -0.22169,0 -1.05011,-0.019 -1.16678,0.019 -0.11667,0.038 -1.75017,0.71272 -1.75017,0.71272 l -2.56692,1.52998 -12.53122,7.22224 -17.87507,8.24855 -23.84899,8.51464 -28.74948,7.60235 -33.2299,3.95323 -19.04186,0.30409 -22.0288,-1.52047 -25.76252,-3.04094 -24.26903,-5.4737 -17.92175,-6.69006 -22.02881,-8.21056 -13.44132,-7.29825 -13.06794,-6.99417 z"
     id="path77-7-9" />
  <path
     style="fill:#ffffff"
     d="m 414.28778,338.67227 18.86584,-14.60581 1.36929,31.34164 -1.67358,1.97787 -8.21577,4.41217 -9.88935,4.71646 z"
     id="path77" />
  <path
     style="fill:#ffffff"
     d="m 126.08607,359.96926 -11.40369,-5.16393 -7.53074,-4.73361 -4.30328,-4.08811 -6.454917,-5.16394 -3.872951,-3.44262 -0.860656,-2.3668 v -3.0123 l -0.430328,-2.3668 v -3.0123 l 1.07582,-2.79713 2.151639,-2.15164 2.797131,-2.15164 c 0,0 2.15164,-1.50614 3.012292,-1.50614 0.86066,0 2.58197,-0.21517 3.65779,0.21516 1.07582,0.43033 2.15164,0.21516 3.44262,0.86066 1.29099,0.64549 4.08812,2.58196 4.08812,2.58196 0,0 2.3668,2.15164 3.44262,2.79713 1.07582,0.6455 2.15164,2.15164 3.22746,2.58197 1.07582,0.43033 3.87295,1.50615 4.73361,2.58197 0.86065,1.07582 4.51844,3.01229 5.59426,3.65778 1.07582,0.6455 3.44262,1.93648 3.44262,1.93648 l 3.0123,2.15164 1.93647,1.93647 c 0,0 -2.3668,5.3791 -3.22746,7.53074 -0.86065,2.15164 -7.53073,13.125 -7.53073,13.125 z"
     id="path78" />
  <path
     style="fill:#ffffff"
     d="m 92.843238,337.6998 6.347336,7.20799 4.518446,3.22746 3.22746,2.04405 2.79713,0.96824 -0.6455,-12.69467 c 0,0 0,-7.63832 -5.37909,-7.20799 -5.379102,0.43033 -10.865782,6.45492 -10.865782,6.45492 z"
     id="path79" />
  <path
     style="fill:#ffffff"
     d="m 112.13004,322.39288 c 0.26625,0.15214 10.45989,6.96058 10.45989,6.96058 l 11.13446,6.62502 -2.4206,1.99027 -21.62397,-7.20799 z"
     id="path80" />
</svg>
